<?xml version="1.0" standalone="no"?>
<!DOCTYPE svg PUBLIC "-//W3C//DTD SVG 20010904//EN"
 "http://www.w3.org/TR/2001/REC-SVG-20010904/DTD/svg10.dtd">
<svg version="1.0" xmlns="http://www.w3.org/2000/svg"
 width="512.000000pt" height="512.000000pt" viewBox="0 0 512.000000 512.000000"
 preserveAspectRatio="xMidYMid meet">

<g transform="translate(0.000000,512.000000) scale(0.100000,-0.100000)"
fill="#000000" stroke="none">
<path d="M3761 5106 c-46 -26 -50 -47 -51 -273 l0 -213 -202 0 -203 1 -202
194 c-114 110 -212 197 -227 201 -74 18 -140 -48 -122 -122 6 -24 72 -90 378
-382 l96 -92 241 0 241 0 0 -221 0 -221 29 -29 c23 -23 38 -29 71 -29 33 0 48
6 71 29 l29 29 0 531 c0 390 -3 537 -12 556 -22 48 -88 68 -137 41z"/>
<path d="M937 4910 c-110 -28 -218 -117 -267 -222 l-30 -63 -141 -5 -141 -5
-29 -33 -29 -32 0 -305 0 -305 -37 0 c-59 0 -110 -18 -133 -47 -20 -25 -20
-37 -20 -560 l0 -535 34 -34 c31 -31 39 -34 95 -34 l61 0 0 -119 0 -119 -63
-30 c-90 -43 -150 -100 -192 -185 -61 -124 -57 -267 11 -382 36 -62 123 -139
189 -166 l55 -23 0 -151 0 -151 -65 -28 c-84 -37 -173 -129 -205 -213 -53
-140 -30 -288 62 -405 34 -44 135 -114 178 -123 l30 -7 0 -178 c0 -193 5 -217
50 -243 26 -16 138 -17 1399 -17 l1371 0 0 -55 c0 -66 15 -102 51 -121 41 -21
1057 -21 1098 0 36 19 51 55 51 121 l0 53 243 4 c224 3 246 5 300 27 85 33
168 115 214 209 36 72 38 81 38 171 0 87 -3 102 -31 162 -18 37 -48 84 -68
106 l-35 40 39 38 c88 86 121 233 81 363 -20 66 -72 150 -110 178 -13 10 -11
16 15 40 141 132 151 364 22 526 -36 46 -134 113 -178 123 l-30 7 0 482 0 483
38 11 c95 29 213 152 244 255 21 69 16 203 -11 270 -33 84 -123 177 -206 213
l-65 28 0 313 0 313 -29 32 -29 33 -226 3 -226 3 0 109 c0 60 -5 120 -11 133
-13 28 -58 57 -89 57 -32 0 -78 -30 -90 -60 -7 -17 -10 -137 -8 -359 l3 -333
28 -24 c38 -33 96 -33 134 0 28 24 28 26 31 150 l4 126 154 0 154 0 0 -248 0
-248 -65 -28 c-83 -36 -173 -129 -206 -213 -27 -67 -32 -201 -11 -270 31 -103
149 -226 244 -255 l38 -11 0 -109 0 -108 -248 0 -248 0 -16 71 c-73 309 -355
529 -678 529 -323 0 -605 -220 -678 -529 l-16 -71 -193 0 -193 0 0 745 0 745
166 0 c94 0 174 4 185 10 24 13 49 61 49 94 0 14 -13 40 -29 58 l-29 33 -636
5 -636 5 -30 63 c-63 133 -193 221 -338 228 -42 2 -94 -1 -115 -6z m179 -215
c190 -95 126 -375 -86 -375 -168 0 -257 185 -156 323 26 35 110 77 156 77 20
0 59 -11 86 -25z m-470 -292 c35 -105 123 -205 221 -251 52 -24 70 -27 163
-27 93 0 111 3 163 27 98 46 186 146 221 251 5 15 20 17 131 17 l125 0 0 -965
0 -965 -266 0 -266 0 -29 -29 -29 -29 0 -862 c0 -925 -1 -903 49 -930 12 -6
121 -10 280 -10 l261 0 0 -120 0 -120 -585 0 -585 0 0 119 0 119 30 7 c43 9
144 79 178 123 92 117 115 265 62 405 -32 84 -121 176 -205 213 l-65 28 0 151
0 151 55 23 c66 27 153 104 189 166 68 115 72 258 11 382 -42 85 -102 142
-192 185 l-63 30 0 119 0 119 71 0 c67 0 73 2 105 34 l34 34 0 535 c0 523 0
535 -20 560 -24 30 -75 47 -142 47 l-48 0 0 240 0 240 70 0 c58 0 72 -3 76
-17z m1504 -794 l0 -811 34 -34 34 -34 260 0 259 0 13 -62 c8 -35 34 -103 58
-153 37 -73 61 -106 131 -176 95 -95 157 -134 276 -175 72 -26 93 -28 215 -28
122 0 143 2 215 28 119 41 181 80 276 175 70 70 94 103 131 176 24 50 50 118
58 153 l13 62 248 0 249 0 0 -327 c0 -306 1 -330 19 -360 21 -33 30 -38 102
-48 124 -16 210 -151 168 -262 -23 -62 -86 -107 -191 -137 -73 -21 -102 -55
-95 -109 6 -40 28 -73 56 -81 9 -3 42 -10 74 -16 68 -14 121 -54 148 -115 54
-118 -14 -228 -171 -276 -79 -24 -100 -42 -107 -97 -4 -33 -1 -44 23 -71 24
-27 40 -33 93 -41 80 -11 132 -44 160 -102 50 -103 2 -231 -104 -279 -35 -16
-69 -19 -257 -19 l-218 0 0 66 c0 70 -10 99 -44 126 -19 16 -64 18 -549 18
-573 0 -570 0 -595 -55 -7 -14 -12 -55 -12 -90 l0 -65 -625 0 -625 0 0 120 0
120 261 0 c159 0 268 4 280 10 50 27 49 5 49 930 l0 862 -29 29 -29 29 -266 0
-266 0 0 965 0 965 140 0 140 0 0 -811z m-1640 -274 l0 -405 -100 0 -100 0 0
405 0 405 100 0 100 0 0 -405z m4327 359 c104 -83 109 -224 10 -311 -33 -29
-90 -53 -127 -53 -37 0 -94 24 -127 53 -111 98 -90 260 42 332 21 11 49 15 97
13 57 -3 73 -8 105 -34z m-1281 -378 c125 -33 261 -142 318 -254 143 -283 -8
-629 -312 -713 -364 -102 -704 229 -617 600 41 171 184 319 355 367 61 17 193
17 256 0z m-3094 -1028 c22 -6 56 -28 77 -49 127 -127 40 -339 -139 -339 -178
0 -266 213 -140 338 58 57 124 74 202 50z m1798 -728 l0 -730 -490 0 -490 0 0
730 0 730 490 0 490 0 0 -730z m-1743 -386 c104 -83 109 -224 10 -311 -33 -29
-90 -53 -127 -53 -37 0 -94 24 -127 53 -111 98 -90 260 42 332 21 11 49 15 97
13 57 -3 73 -8 105 -34z m3603 -874 l0 -100 -400 0 -400 0 0 100 0 100 400 0
400 0 0 -100z"/>
<path d="M1850 2087 c-24 -12 -336 -404 -366 -461 -20 -37 -11 -86 22 -117 23
-22 36 -24 141 -29 l115 -5 -116 -150 c-104 -135 -116 -154 -116 -191 0 -57
37 -94 94 -94 24 0 50 8 62 18 23 18 355 446 373 480 14 27 14 55 -1 87 -20
44 -56 55 -173 55 -58 0 -105 2 -105 5 0 2 47 66 105 141 90 116 105 141 105
173 -1 74 -74 121 -140 88z"/>
</g>
</svg>
