<?xml version="1.0" standalone="no"?>
<!DOCTYPE svg PUBLIC "-//W3C//DTD SVG 20010904//EN"
 "http://www.w3.org/TR/2001/REC-SVG-20010904/DTD/svg10.dtd">
<svg version="1.0" xmlns="http://www.w3.org/2000/svg"
 width="256.000000pt" height="256.000000pt" viewBox="0 0 256.000000 256.000000"
 preserveAspectRatio="xMidYMid meet">

<g transform="translate(0.000000,256.000000) scale(0.100000,-0.100000)"
fill="#000000" stroke="none">
<path d="M1237 2460 c-54 -10 -116 -57 -144 -109 -46 -88 -22 -210 53 -267 33
-26 34 -29 34 -95 l0 -69 -225 0 c-205 0 -229 -2 -264 -20 -44 -22 -81 -74
-81 -114 0 -26 -1 -26 -69 -26 -46 0 -72 -5 -80 -14 -8 -9 -11 -88 -9 -267 l3
-254 75 -5 c73 -5 74 -5 80 -35 10 -45 27 -71 67 -102 35 -27 41 -28 180 -31
l143 -4 0 -48 0 -49 -224 -3 c-250 -3 -253 -4 -303 -78 -23 -33 -23 -36 -23
-396 0 -349 1 -364 19 -374 27 -14 1595 -14 1622 0 18 10 19 25 19 374 0 360
0 363 -22 396 -51 74 -54 75 -304 78 l-224 3 0 49 0 48 144 4 c127 3 148 5
172 24 39 29 65 66 73 105 l7 34 74 5 75 5 3 254 c2 179 -1 258 -9 267 -8 9
-34 14 -79 14 l-67 0 -6 34 c-8 48 -34 84 -78 107 -34 17 -60 19 -264 19
l-225 0 0 69 c0 66 1 69 34 95 80 61 101 197 43 284 -46 71 -134 107 -220 92z
m120 -90 c87 -52 83 -198 -6 -245 -98 -50 -211 16 -211 123 0 85 56 142 140
142 27 0 58 -8 77 -20z m-57 -390 c0 -53 -2 -60 -20 -60 -18 0 -20 7 -20 60 0
53 2 60 20 60 18 0 20 -7 20 -60z m555 -155 l25 -24 0 -314 0 -314 -26 -24
-26 -24 -548 0 -548 0 -26 24 -26 24 0 314 0 314 25 24 24 25 551 0 551 0 24
-25z m-1247 -337 l2 -198 -45 0 -45 0 0 201 0 200 43 -3 42 -3 3 -197z m1432
2 l0 -200 -45 0 -45 0 0 193 c0 107 3 197 7 200 3 4 24 7 45 7 l38 0 0 -200z
m-560 -490 l0 -50 -200 0 -200 0 0 50 0 50 200 0 200 0 0 -50z m531 -149 l29
-29 0 -332 0 -331 -137 3 -138 3 -5 175 -5 175 -470 3 c-433 2 -471 1 -482
-15 -9 -12 -13 -65 -13 -180 l0 -163 -135 0 -135 0 0 331 0 331 29 29 29 29
702 0 702 0 29 -29z m-321 -546 l0 -145 -412 2 -413 3 -3 143 -3 142 416 0
415 0 0 -145z"/>
<path d="M872 1700 c-70 -43 -95 -146 -52 -216 22 -35 91 -74 130 -74 39 0
108 39 130 74 28 47 27 122 -3 167 -44 66 -139 89 -205 49z m132 -71 c28 -22
36 -72 16 -108 -16 -31 -65 -46 -100 -31 -37 15 -50 37 -50 84 0 41 37 76 80
76 15 0 39 -9 54 -21z"/>
<path d="M1540 1702 c-51 -25 -80 -74 -80 -135 0 -64 28 -109 84 -136 52 -26
79 -26 132 -2 54 25 84 73 84 137 0 118 -115 189 -220 136z m124 -73 c28 -22
36 -72 16 -108 -16 -31 -65 -46 -100 -31 -37 15 -50 37 -50 84 0 41 37 76 80
76 15 0 39 -9 54 -21z"/>
<path d="M1050 1285 c-6 -8 -10 -22 -8 -32 3 -17 20 -18 238 -18 218 0 235 1
238 18 9 44 -8 47 -238 47 -178 0 -220 -3 -230 -15z"/>
<path d="M618 814 c-34 -18 -48 -43 -48 -84 0 -45 47 -90 93 -90 99 0 131 132
42 174 -40 19 -52 19 -87 0z m61 -63 c17 -11 7 -41 -13 -41 -19 0 -29 17 -22
35 6 17 15 18 35 6z"/>
<path d="M1849 815 c-14 -8 -32 -28 -39 -44 -40 -96 77 -175 151 -102 47 48
38 116 -21 146 -36 18 -57 18 -91 0z m69 -78 c4 -21 -25 -34 -40 -19 -8 8 -8
16 2 27 16 19 34 15 38 -8z"/>
</g>
</svg>
