<?xml version="1.0" standalone="no"?>
<!DOCTYPE svg PUBLIC "-//W3C//DTD SVG 20010904//EN"
 "http://www.w3.org/TR/2001/REC-SVG-20010904/DTD/svg10.dtd">
<svg version="1.0" xmlns="http://www.w3.org/2000/svg"
 width="256.000000pt" height="256.000000pt" viewBox="0 0 256.000000 256.000000"
 preserveAspectRatio="xMidYMid meet">

<g transform="translate(0.000000,256.000000) scale(0.100000,-0.100000)"
fill="#000000" stroke="none">
<path d="M408 2539 c-23 -12 -46 -35 -58 -59 -20 -39 -20 -57 -20 -1200 0
-1120 1 -1162 19 -1198 11 -22 35 -46 59 -60 l40 -22 831 0 c797 0 833 1 869
19 22 11 46 35 60 59 l22 40 0 1161 c0 1145 0 1162 -20 1201 -13 26 -34 47
-60 60 -38 20 -57 20 -872 20 -810 -1 -834 -1 -870 -21z m1706 -95 c14 -14 16
-133 16 -1164 0 -1031 -2 -1150 -16 -1164 -14 -14 -103 -16 -834 -16 -731 0
-820 2 -834 16 -14 14 -16 133 -16 1164 0 1031 2 1150 16 1164 14 14 103 16
834 16 731 0 820 -2 834 -16z"/>
<path d="M546 2344 c-31 -30 -9 -84 34 -84 24 0 50 26 50 50 0 24 -26 50 -50
50 -10 0 -26 -7 -34 -16z"/>
<path d="M1946 2344 c-9 -8 -16 -24 -16 -34 0 -10 7 -26 16 -34 8 -9 24 -16
34 -16 43 0 65 54 34 84 -8 9 -24 16 -34 16 -10 0 -26 -7 -34 -16z"/>
<path d="M708 2109 c-23 -12 -46 -35 -58 -59 -19 -37 -20 -58 -20 -320 0 -320
3 -336 78 -378 l40 -22 531 0 c513 0 533 1 571 20 26 13 47 34 60 60 19 37 20
58 20 320 0 262 -1 283 -20 320 -13 26 -34 47 -60 60 -38 19 -57 20 -572 20
-511 -1 -535 -2 -570 -21z m1106 -95 c14 -13 16 -47 16 -212 l0 -196 -113 112
c-79 78 -121 112 -137 112 -16 0 -58 -35 -137 -112 l-113 -112 -163 162 c-118
117 -170 162 -187 162 -16 0 -57 -34 -137 -112 l-113 -112 0 146 c0 120 3 149
16 162 14 14 76 16 534 16 458 0 520 -2 534 -16z m-644 -399 l185 -185 -297 0
c-337 0 -328 -2 -328 78 0 46 1 48 122 169 68 68 125 123 128 123 3 0 88 -83
190 -185z m534 -34 c152 -152 152 -151 -53 -151 l-147 0 -49 50 -49 50 84 85
c47 47 87 85 90 85 3 0 59 -54 124 -119z"/>
<path d="M646 1084 c-9 -8 -16 -24 -16 -34 0 -46 18 -50 250 -50 185 0 221 2
234 16 20 20 20 48 0 68 -23 24 -445 24 -468 0z"/>
<path d="M1246 1084 c-9 -8 -16 -24 -16 -34 0 -10 7 -26 16 -34 30 -31 84 -9
84 34 0 24 -26 50 -50 50 -10 0 -26 -7 -34 -16z"/>
<path d="M1446 1084 c-9 -8 -16 -24 -16 -34 0 -46 18 -50 250 -50 232 0 250 4
250 50 0 46 -18 50 -250 50 -185 0 -221 -2 -234 -16z"/>
<path d="M646 784 c-9 -8 -16 -24 -16 -34 0 -46 18 -50 250 -50 185 0 221 2
234 16 20 20 20 48 0 68 -23 24 -445 24 -468 0z"/>
<path d="M1246 784 c-9 -8 -16 -24 -16 -34 0 -10 7 -26 16 -34 30 -31 84 -9
84 34 0 24 -26 50 -50 50 -10 0 -26 -7 -34 -16z"/>
<path d="M1446 784 c-9 -8 -16 -24 -16 -34 0 -46 18 -50 250 -50 232 0 250 4
250 50 0 46 -18 50 -250 50 -185 0 -221 -2 -234 -16z"/>
<path d="M646 484 c-9 -8 -16 -24 -16 -34 0 -46 18 -50 250 -50 185 0 221 2
234 16 20 20 20 48 0 68 -23 24 -445 24 -468 0z"/>
<path d="M1246 484 c-31 -30 -9 -84 34 -84 24 0 50 26 50 50 0 24 -26 50 -50
50 -10 0 -26 -7 -34 -16z"/>
<path d="M1446 484 c-9 -8 -16 -24 -16 -34 0 -46 18 -50 250 -50 232 0 250 4
250 50 0 46 -18 50 -250 50 -185 0 -221 -2 -234 -16z"/>
<path d="M546 284 c-31 -30 -9 -84 34 -84 24 0 50 26 50 50 0 24 -26 50 -50
50 -10 0 -26 -7 -34 -16z"/>
<path d="M1946 284 c-31 -30 -9 -84 34 -84 24 0 50 26 50 50 0 24 -26 50 -50
50 -10 0 -26 -7 -34 -16z"/>
</g>
</svg>
