<?xml version="1.0" standalone="no"?>
<!DOCTYPE svg PUBLIC "-//W3C//DTD SVG 20010904//EN"
 "http://www.w3.org/TR/2001/REC-SVG-20010904/DTD/svg10.dtd">
<svg version="1.0" xmlns="http://www.w3.org/2000/svg"
 width="256.000000pt" height="256.000000pt" viewBox="0 0 256.000000 256.000000"
 preserveAspectRatio="xMidYMid meet">

<g transform="translate(0.000000,256.000000) scale(0.100000,-0.100000)"
fill="#000000" stroke="none">
<path d="M121 2356 c-90 -90 -112 -118 -109 -137 2 -16 11 -25 27 -27 19 -3
41 13 102 74 l79 79 0 -887 0 -887 -101 -3 c-84 -3 -104 -6 -113 -21 -8 -12
-8 -22 0 -35 9 -14 29 -17 113 -20 l101 -3 0 -124 c0 -115 1 -125 21 -135 41
-22 49 1 49 136 l0 124 611 2 c570 3 613 4 623 20 8 13 8 23 0 35 -10 17 -40
18 -348 21 l-336 2 0 410 0 410 51 0 c59 0 89 13 89 40 0 28 -17 34 -106 35
-117 1 -188 38 -286 148 -125 140 -201 212 -250 235 l-48 22 0 235 c0 129 3
235 8 235 4 0 41 -34 82 -75 78 -79 113 -94 125 -54 6 18 -13 42 -111 140 -74
74 -126 119 -139 119 -13 0 -63 -43 -134 -114z m277 -654 c42 -43 111 -114
152 -158 56 -60 92 -89 143 -114 l67 -33 0 -413 0 -414 -235 0 -235 0 0 605
c0 545 2 605 16 605 9 0 50 -35 92 -78z"/>
<path d="M976 2329 c-17 -13 -26 -30 -26 -49 0 -15 -7 -33 -15 -40 -8 -7 -15
-23 -15 -35 0 -13 7 -25 15 -29 12 -4 15 -24 15 -89 0 -65 4 -88 16 -98 11 -9
20 -10 32 -2 13 8 18 29 20 96 2 74 5 87 21 92 37 11 36 59 0 70 -27 9 -24 19
11 32 33 12 38 33 14 57 -21 22 -56 20 -88 -5z"/>
<path d="M1187 2308 c-26 -20 -40 -124 -27 -205 12 -73 23 -93 51 -93 26 0 38
27 28 69 -11 48 -11 129 0 168 7 23 5 37 -6 52 -16 24 -23 26 -46 9z"/>
<path d="M1696 2307 c-16 -11 -16 -19 -6 -78 9 -49 9 -82 0 -128 -12 -68 -4
-91 31 -91 33 0 44 38 44 156 0 96 -3 115 -19 133 -22 25 -26 25 -50 8z"/>
<path d="M1366 2284 c-21 -21 -21 -24 15 -73 l32 -42 -32 -44 c-37 -51 -40
-81 -9 -91 17 -5 29 1 56 31 l35 38 30 -36 c33 -42 72 -50 82 -17 7 22 4 29
-38 81 l-28 37 33 46 c26 37 30 50 22 64 -19 30 -46 26 -76 -9 l-28 -34 -26
33 c-28 36 -45 40 -68 16z"/>
<path d="M1475 1877 c-105 -35 -154 -75 -328 -270 -83 -93 -96 -129 -49 -135
25 -4 60 28 201 187 86 96 128 126 212 147 97 25 199 3 284 -62 l35 -26 0
-574 0 -574 -83 0 c-51 0 -88 -5 -95 -12 -17 -17 -15 -55 4 -62 9 -3 185 -6
392 -6 l375 0 -76 -79 c-42 -43 -77 -85 -77 -93 0 -19 20 -38 40 -38 20 0 250
230 250 250 0 20 -231 250 -251 250 -19 0 -39 -20 -39 -38 0 -8 35 -50 77 -93
l76 -79 -261 0 -262 0 0 525 c0 289 2 525 5 525 3 0 39 -36 81 -80 101 -105
174 -144 278 -144 l71 -1 0 29 c0 29 -2 30 -70 42 -121 20 -148 39 -338 246
-127 139 -185 171 -321 175 -56 2 -106 -2 -131 -10z"/>
<path d="M1277 1200 c-57 -45 -40 -106 41 -142 41 -19 44 -22 23 -26 -13 -2
-28 1 -34 7 -19 19 -65 13 -72 -10 -9 -26 16 -55 62 -70 87 -28 163 47 122
122 -6 11 -29 29 -52 39 -27 12 -35 19 -22 19 11 0 27 -3 34 -8 20 -13 51 5
51 29 0 26 -55 60 -96 60 -17 0 -43 -9 -57 -20z"/>
<path d="M1742 438 c-13 -13 -17 -315 -4 -334 4 -6 45 -11 93 -12 74 -2 90 1
113 19 56 44 72 118 36 176 -28 47 -62 65 -120 65 -49 0 -50 1 -50 30 0 57
-37 87 -68 56z m154 -166 c6 -4 17 -18 24 -31 10 -20 9 -27 -7 -50 -24 -32
-58 -38 -84 -15 -50 45 11 133 67 96z"/>
<path d="M816 353 c-4 -5 -31 -8 -59 -9 -63 0 -99 -22 -122 -71 -23 -48 -12
-98 31 -141 30 -30 39 -33 81 -32 27 2 56 -1 65 -5 9 -3 25 -5 35 -3 16 3 18
17 21 127 2 93 -1 126 -10 133 -16 10 -32 10 -42 1z m-32 -105 c9 -12 16 -26
16 -30 0 -13 -39 -48 -54 -48 -37 0 -61 61 -34 88 19 19 55 14 72 -10z"/>
</g>
</svg>
