<?xml version="1.0" standalone="no"?>
<!DOCTYPE svg PUBLIC "-//W3C//DTD SVG 20010904//EN"
 "http://www.w3.org/TR/2001/REC-SVG-20010904/DTD/svg10.dtd">
<svg version="1.0" xmlns="http://www.w3.org/2000/svg"
 width="256.000000pt" height="256.000000pt" viewBox="0 0 256.000000 256.000000"
 preserveAspectRatio="xMidYMid meet">

<g transform="translate(0.000000,256.000000) scale(0.100000,-0.100000)"
fill="#000000" stroke="none">
<path d="M1233 2334 c-57 -28 -63 -56 -63 -303 l0 -221 -363 0 -363 0 -52 -26
c-65 -32 -124 -99 -154 -173 -23 -56 -23 -57 -23 -596 l0 -540 23 -57 c31 -76
98 -149 164 -179 l53 -24 825 0 825 0 53 24 c66 30 133 103 164 179 l23 57 0
540 c0 539 0 540 -23 596 -30 74 -89 141 -154 173 l-52 26 -363 0 -363 0 0
221 c0 248 -6 275 -65 303 -41 20 -52 20 -92 0z m848 -744 c48 -26 49 -34 49
-575 0 -541 -1 -549 -49 -575 -27 -14 -1575 -14 -1602 0 -48 26 -49 34 -49
575 0 537 1 547 47 574 25 14 1577 15 1604 1z"/>
<path d="M815 1376 c-48 -21 -60 -42 -65 -125 l-5 -76 -76 -5 c-86 -6 -111
-20 -129 -75 -9 -26 -8 -41 4 -68 20 -48 60 -67 141 -67 l65 0 0 -76 c0 -70 2
-78 29 -105 43 -43 101 -41 147 5 32 32 34 38 34 105 l0 71 71 0 c67 0 73 2
105 34 46 46 48 104 5 147 -27 27 -35 29 -105 29 l-76 0 0 65 c0 80 -19 121
-65 141 -41 17 -42 17 -80 0z"/>
<path d="M1663 1376 c-34 -15 -63 -61 -63 -98 0 -40 36 -86 76 -97 103 -29
178 90 107 169 -33 36 -76 45 -120 26z"/>
<path d="M1441 1156 c-31 -17 -50 -53 -51 -94 0 -49 54 -102 104 -102 51 0 95
42 103 97 5 39 2 46 -30 78 -38 38 -81 46 -126 21z"/>
<path d="M1861 1154 c-60 -42 -58 -138 2 -174 39 -24 68 -25 108 -4 93 48 55
194 -50 194 -20 0 -47 -7 -60 -16z"/>
<path d="M1665 951 c-39 -16 -60 -51 -60 -98 0 -38 5 -49 33 -74 90 -80 211
15 160 126 -20 45 -82 66 -133 46z"/>
<path d="M1183 735 c-33 -14 -63 -59 -63 -95 0 -37 30 -81 65 -96 44 -18 146
-18 190 0 35 15 65 59 65 96 0 37 -30 81 -65 96 -43 18 -150 18 -192 -1z"/>
</g>
</svg>
