<?xml version="1.0" standalone="no"?>
<!DOCTYPE svg PUBLIC "-//W3C//DTD SVG 20010904//EN"
 "http://www.w3.org/TR/2001/REC-SVG-20010904/DTD/svg10.dtd">
<svg version="1.0" xmlns="http://www.w3.org/2000/svg"
 width="256.000000pt" height="256.000000pt" viewBox="0 0 256.000000 256.000000"
 preserveAspectRatio="xMidYMid meet">

<g transform="translate(0.000000,256.000000) scale(0.100000,-0.100000)"
fill="#000000" stroke="none">
<path d="M543 2233 c-12 -2 -36 -20 -53 -39 -25 -29 -30 -43 -30 -87 l-1 -52
-61 -35 c-33 -19 -81 -57 -106 -85 -74 -82 -100 -150 -139 -372 -19 -107 -32
-206 -29 -219 5 -17 13 -24 31 -24 13 0 27 4 30 10 3 5 21 100 40 209 27 156
41 213 64 258 36 72 113 146 189 181 50 24 69 27 157 27 92 0 105 -2 165 -32
95 -46 110 -62 110 -116 0 -54 31 -105 80 -130 49 -25 227 -21 244 6 8 12 8
22 0 35 -9 14 -28 17 -100 19 -49 2 -99 5 -111 8 -21 5 -48 59 -37 76 7 12
581 12 588 0 11 -17 -16 -71 -37 -76 -12 -3 -62 -6 -111 -8 -72 -2 -91 -5
-100 -19 -8 -13 -8 -23 0 -35 17 -27 195 -31 244 -6 49 25 80 76 80 130 0 54
15 70 110 116 60 30 73 32 165 32 88 0 107 -3 157 -27 76 -36 153 -109 190
-182 26 -52 40 -120 120 -595 101 -601 103 -631 52 -703 -40 -57 -119 -98
-188 -98 -106 1 -187 68 -226 186 -26 79 -36 94 -60 94 -40 0 -43 -25 -15
-109 55 -165 153 -243 305 -244 150 0 282 119 297 267 3 36 -20 198 -82 566
-47 283 -92 541 -100 572 -31 124 -108 228 -213 288 l-61 35 -1 53 c0 45 -4
57 -34 89 l-34 37 -98 4 c-81 3 -105 0 -134 -15 -44 -22 -70 -73 -70 -135 0
-38 -4 -48 -20 -53 -11 -3 -43 -24 -72 -46 l-52 -39 -306 0 -306 0 -52 39
c-29 22 -61 43 -72 46 -16 5 -20 15 -20 53 0 62 -26 113 -70 134 -34 17 -155
23 -217 11z m195 -85 c7 -7 12 -24 12 -38 l0 -26 -110 1 c-117 0 -119 1 -100
49 9 25 12 26 98 26 55 0 92 -4 100 -12z m1282 -14 c19 -48 17 -49 -100 -49
l-110 -1 0 26 c0 43 17 50 112 50 86 0 89 -1 98 -26z"/>
<path d="M1904 1896 c-41 -18 -64 -52 -64 -94 0 -69 44 -112 114 -112 71 0
120 77 92 143 -24 60 -87 87 -142 63z m74 -92 c4 -25 -22 -49 -43 -40 -22 8
-29 34 -14 52 17 21 53 14 57 -12z"/>
<path d="M567 1829 c-15 -11 -32 -37 -38 -59 -9 -30 -17 -39 -41 -44 -16 -3
-43 -19 -59 -35 -58 -58 -27 -168 54 -189 24 -6 34 -16 41 -40 5 -18 25 -46
44 -63 31 -27 41 -31 79 -26 52 6 79 28 104 85 13 31 24 42 40 42 11 0 36 15
55 34 27 27 34 42 34 73 0 56 -31 99 -80 114 -33 10 -42 18 -47 41 -3 16 -19
42 -35 59 -24 24 -38 29 -77 29 -34 0 -56 -6 -74 -21z m101 -61 c7 -7 12 -29
12 -49 0 -48 21 -69 70 -69 29 0 42 -5 50 -19 13 -25 13 -27 -6 -45 -8 -9 -32
-16 -53 -16 -47 0 -61 -14 -61 -61 0 -21 -7 -45 -16 -53 -18 -19 -20 -19 -45
-6 -14 8 -19 21 -19 48 0 53 -17 71 -69 74 -80 5 -84 70 -5 76 52 5 74 26 74
72 0 39 14 60 40 60 9 0 21 -5 28 -12z"/>
<path d="M1713 1710 c-26 -11 -63 -66 -63 -93 0 -38 32 -85 67 -102 29 -14 43
-15 73 -6 50 15 71 41 77 95 5 42 3 48 -30 81 -37 37 -75 44 -124 25z m72 -76
c18 -18 16 -33 -7 -47 -35 -22 -66 21 -36 51 16 16 23 15 43 -4z"/>
<path d="M2072 1704 c-25 -17 -52 -64 -52 -89 0 -36 32 -84 67 -100 72 -35
153 20 153 104 0 49 -54 101 -107 101 -21 0 -49 -7 -61 -16z m82 -70 c22 -21
3 -56 -27 -52 -25 3 -34 32 -17 53 16 19 25 19 44 -1z"/>
<path d="M1030 1525 c-6 -8 -9 -23 -5 -35 6 -18 15 -20 84 -20 88 0 111 13 91
49 -9 18 -20 21 -84 21 -52 0 -77 -4 -86 -15z"/>
<path d="M1360 1519 c-20 -36 3 -49 91 -49 69 0 78 2 84 20 12 37 -11 50 -91
50 -64 0 -75 -3 -84 -21z"/>
<path d="M1904 1526 c-41 -18 -64 -52 -64 -93 0 -73 52 -119 121 -110 48 6 68
21 85 64 18 41 8 85 -25 117 -33 32 -77 40 -117 22z m74 -92 c4 -25 -19 -47
-41 -38 -22 8 -30 34 -16 51 17 20 53 12 57 -13z"/>
<path d="M800 1338 c-55 -38 -75 -73 -75 -133 0 -90 60 -150 150 -150 119 0
190 118 135 225 -38 74 -143 103 -210 58z m132 -75 c25 -22 30 -60 14 -92 -37
-70 -146 -45 -146 34 0 71 79 106 132 58z"/>
<path d="M1606 1336 c-99 -60 -101 -188 -3 -260 39 -29 125 -29 163 0 51 38
69 71 69 129 0 122 -126 194 -229 131z m113 -61 c47 -24 56 -83 19 -122 -38
-41 -105 -28 -128 26 -15 37 2 79 40 98 32 16 35 16 69 -2z"/>
<path d="M103 1228 c-18 -23 -106 -588 -100 -639 12 -99 88 -199 186 -242 87
-38 219 -21 298 39 64 49 89 98 164 322 39 119 72 218 73 219 1 1 20 -4 41
-12 87 -31 211 -13 281 40 32 25 35 25 234 25 199 0 202 0 234 -25 70 -53 194
-71 281 -40 21 8 40 13 41 12 1 -1 13 -39 28 -84 29 -88 53 -110 84 -79 15 15
13 26 -22 132 -22 68 -44 118 -53 121 -9 4 -30 1 -47 -7 -99 -40 -118 -44
-175 -32 -32 7 -77 27 -107 47 l-50 35 -214 0 -214 0 -50 -35 c-30 -20 -75
-40 -107 -47 -57 -12 -76 -8 -175 32 -17 8 -38 11 -46 7 -10 -3 -46 -97 -98
-253 -90 -270 -111 -307 -195 -345 -93 -43 -219 -7 -279 79 -46 66 -45 120 8
439 25 149 43 279 40 287 -7 19 -48 21 -61 4z"/>
</g>
</svg>
