<?xml version="1.0" standalone="no"?>
<!DOCTYPE svg PUBLIC "-//W3C//DTD SVG 20010904//EN"
 "http://www.w3.org/TR/2001/REC-SVG-20010904/DTD/svg10.dtd">
<svg version="1.0" xmlns="http://www.w3.org/2000/svg"
 width="256.000000pt" height="256.000000pt" viewBox="0 0 256.000000 256.000000"
 preserveAspectRatio="xMidYMid meet">

<g transform="translate(0.000000,256.000000) scale(0.100000,-0.100000)"
fill="#000000" stroke="none">
<path d="M464 2549 c-58 -17 -126 -71 -157 -126 -62 -112 -41 -241 52 -326 76
-68 87 -70 441 -74 244 -4 320 -8 342 -19 45 -23 80 -79 86 -134 l5 -50 -55 0
c-94 0 -154 -24 -219 -90 -43 -43 -62 -70 -71 -104 l-12 -46 -82 0 c-45 0
-106 -5 -135 -10 -130 -25 -278 -128 -346 -241 -32 -55 -273 -688 -299 -789
-19 -75 -18 -146 6 -223 112 -363 583 -430 791 -113 l42 64 40 -14 c102 -36
206 7 258 108 l19 38 110 0 110 0 19 -38 c52 -101 156 -144 258 -108 l40 14
42 -64 c128 -195 364 -258 573 -153 149 75 250 256 235 422 -7 77 -65 245 -89
258 -24 13 -55 3 -68 -21 -8 -14 -3 -39 21 -102 26 -68 32 -98 33 -168 1 -74
-3 -92 -27 -141 -32 -66 -109 -142 -172 -170 -24 -11 -73 -22 -108 -26 -128
-12 -239 45 -320 165 l-48 71 16 48 c37 107 -23 225 -134 262 -98 32 -202 -13
-252 -111 l-19 -38 -110 0 -110 0 -19 38 c-11 22 -35 53 -55 69 -156 137 -398
-24 -331 -220 l16 -48 -48 -71 c-81 -120 -192 -177 -320 -165 -35 4 -84 15
-108 26 -63 28 -140 104 -172 170 -24 48 -28 67 -27 141 1 84 3 90 137 448 91
244 147 379 170 410 45 63 123 125 194 153 l58 24 594 3 c524 2 600 1 650 -14
153 -44 240 -130 302 -296 18 -46 39 -89 47 -95 24 -20 50 -15 67 11 15 22 14
30 -18 115 -19 50 -49 113 -67 141 -70 109 -213 206 -339 230 -29 5 -90 10
-135 10 l-82 0 -12 45 c-9 33 -28 62 -70 105 -64 65 -124 90 -219 90 l-53 0 0
40 c0 97 -67 197 -160 239 -42 19 -66 21 -330 21 -301 1 -356 6 -398 37 -101
75 -92 222 18 280 43 23 45 23 441 23 348 0 400 2 413 16 9 8 16 24 16 34 0
10 -7 26 -16 34 -14 14 -64 16 -417 15 -221 0 -416 -5 -433 -10z m1004 -844
c20 -9 47 -26 60 -38 22 -20 52 -68 52 -82 0 -3 -135 -5 -300 -5 -165 0 -300
2 -300 5 0 14 30 62 52 82 47 44 84 52 246 53 116 0 162 -4 190 -15z m-425
-1185 c36 -41 37 -96 1 -139 -76 -90 -218 -12 -184 101 24 81 126 102 183 38z
m614 20 c69 -42 63 -151 -10 -186 -103 -49 -205 72 -136 160 38 49 93 58 146
26z"/>
<path d="M754 1310 c-55 -12 -114 -70 -114 -113 0 -10 -8 -20 -17 -23 -89 -27
-128 -78 -121 -160 4 -45 11 -61 37 -88 18 -18 47 -38 64 -43 23 -6 34 -17 40
-40 34 -116 204 -140 267 -38 11 18 20 40 20 49 0 9 8 19 18 22 46 14 84 40
103 71 25 40 27 108 4 152 -17 34 -68 71 -98 71 -10 0 -20 8 -23 18 -15 48
-36 83 -58 98 -34 22 -84 32 -122 24z m77 -127 c5 -13 9 -37 9 -52 0 -34 17
-51 51 -51 42 0 76 -16 82 -39 8 -33 -18 -58 -69 -64 -51 -5 -64 -17 -64 -62
0 -40 -25 -75 -54 -75 -31 0 -42 16 -49 69 -7 54 -14 61 -68 68 -53 7 -69 18
-69 49 0 29 35 54 77 54 39 0 63 30 63 77 0 59 71 79 91 26z"/>
<path d="M1415 1175 c-170 -60 -130 -305 50 -305 93 0 155 62 155 156 0 109
-104 185 -205 149z m93 -108 c17 -13 15 -72 -2 -86 -24 -20 -79 -9 -92 18 -30
59 40 110 94 68z"/>
<path d="M1855 1175 c-170 -60 -130 -305 50 -305 93 0 155 62 155 156 0 109
-104 185 -205 149z m93 -108 c17 -13 15 -72 -2 -86 -24 -20 -79 -9 -92 18 -30
59 40 110 94 68z"/>
<path d="M2338 939 c-21 -12 -24 -59 -6 -77 7 -7 21 -12 33 -12 12 0 26 5 33
12 19 19 15 66 -7 78 -24 12 -31 12 -53 -1z"/>
</g>
</svg>
