<?xml version="1.0" encoding="UTF-8" standalone="no"?>
<!-- Created with Inkscape (http://www.inkscape.org/) -->

<svg
   version="1.1"
   id="svg147"
   xml:space="preserve"
   width="682.66669"
   height="682.66669"
   viewBox="0 0 682.66669 682.66669"
   xmlns="http://www.w3.org/2000/svg"
   xmlns:svg="http://www.w3.org/2000/svg"><defs
     id="defs151"><clipPath
       clipPathUnits="userSpaceOnUse"
       id="clipPath161"><path
         d="M 0,512 H 512 V 0 H 0 Z"
         id="path159" /></clipPath></defs><g
     id="g153"
     transform="matrix(1.3333333,0,0,-1.3333333,0,682.66667)"><g
       id="g155"><g
         id="g157"
         clip-path="url(#clipPath161)"><g
           id="g163"
           transform="translate(104.1201,325.1499)"><path
             d="m 0,0 c -2.99,-7.48 -4.64,-15.65 -4.64,-24.2 0,-21.81 10.7,-41.11 27.14,-52.94"
             style="fill:none;stroke:#000000;stroke-width:15;stroke-linecap:round;stroke-linejoin:round;stroke-miterlimit:10;stroke-dasharray:none;stroke-opacity:1"
             id="path165" /></g><g
           id="g167"
           transform="translate(121.1802,349.51)"><path
             d="m 0,0 c 11.53,10.34 26.77,16.63 43.48,16.63 36,0 65.19,-29.19 65.19,-65.19 0,-21.81 -10.7,-41.11 -27.14,-52.94"
             style="fill:none;stroke:#000000;stroke-width:15;stroke-linecap:round;stroke-linejoin:round;stroke-miterlimit:10;stroke-dasharray:none;stroke-opacity:1"
             id="path169" /></g><g
           id="g171"
           transform="translate(285.1299,7.5115)"><path
             d="m 0,0 h -86.866 -154.065 v 46.668 c 0,13.95 11.31,25.249 25.249,25.249 h 136.835"
             style="fill:none;stroke:#000000;stroke-width:15;stroke-linecap:round;stroke-linejoin:round;stroke-miterlimit:10;stroke-dasharray:none;stroke-opacity:1"
             id="path173" /></g><g
           id="g175"
           transform="translate(69.4482,79.429)"><path
             d="M 0,0 V 32.479 H 157.064"
             style="fill:none;stroke:#000000;stroke-width:15;stroke-linecap:round;stroke-linejoin:round;stroke-miterlimit:10;stroke-dasharray:none;stroke-opacity:1"
             id="path177" /></g><g
           id="g179"
           transform="translate(92.8872,224.604)"><path
             d="m 0,0 v 0 c 0,12.928 10.481,23.409 23.409,23.409 h 96.736 c 12.928,0 23.409,-10.481 23.409,-23.409 0,-12.928 -10.481,-23.409 -23.409,-23.409 H 23.409 C 10.481,-23.409 0,-12.928 0,0 Z"
             style="fill:none;stroke:#000000;stroke-width:15;stroke-linecap:round;stroke-linejoin:round;stroke-miterlimit:10;stroke-dasharray:none;stroke-opacity:1"
             id="path181" /></g><g
           id="g183"
           transform="translate(116.2964,201.1948)"><path
             d="M 0,0 C 0,-28.349 -6.001,-70.401 -46.849,-89.288"
             style="fill:none;stroke:#000000;stroke-width:15;stroke-linecap:round;stroke-linejoin:round;stroke-miterlimit:10;stroke-dasharray:none;stroke-opacity:1"
             id="path185" /></g><g
           id="g187"
           transform="translate(213.0332,201.1943)"><path
             d="M 0,0 C 0,-21.219 3.36,-50.098 22.169,-71.217"
             style="fill:none;stroke:#000000;stroke-width:15;stroke-linecap:round;stroke-linejoin:round;stroke-miterlimit:10;stroke-dasharray:none;stroke-opacity:1"
             id="path189" /></g><g
           id="g191"
           transform="translate(439.5566,87.9688)"><path
             d="m 0,0 h -213.047 c -15.599,0 -28.244,-12.645 -28.244,-28.243 V -80.457 H 28.244 v 52.214 C 28.244,-12.645 15.599,0 0,0 Z"
             style="fill:none;stroke:#000000;stroke-width:15;stroke-linecap:round;stroke-linejoin:round;stroke-miterlimit:10;stroke-dasharray:none;stroke-opacity:1"
             id="path193" /></g><g
           id="g195"
           transform="translate(226.5093,87.9688)"><path
             d="M 0,0 V 36.336 H 213.047 V 0"
             style="fill:none;stroke:#000000;stroke-width:15;stroke-linecap:round;stroke-linejoin:round;stroke-miterlimit:10;stroke-dasharray:none;stroke-opacity:1"
             id="path197" /></g><g
           id="g199"
           transform="translate(278.9219,307.0371)"><path
             d="M 0,0 C 0,-31.716 -6.714,-161.603 -52.413,-182.733"
             style="fill:none;stroke:#000000;stroke-width:15;stroke-linecap:round;stroke-linejoin:round;stroke-miterlimit:10;stroke-dasharray:none;stroke-opacity:1"
             id="path201" /></g><g
           id="g203"
           transform="translate(439.5596,124.3)"><path
             d="M 0,0 C -7.579,3.5 -14.09,10 -19.67,18.55"
             style="fill:none;stroke:#000000;stroke-width:15;stroke-linecap:round;stroke-linejoin:round;stroke-miterlimit:10;stroke-dasharray:none;stroke-opacity:1"
             id="path205" /></g><g
           id="g207"
           transform="translate(387.1396,307.04)"><path
             d="M 0,0 C 0,-21.78 3.17,-89.87 19.96,-137.23"
             style="fill:none;stroke:#000000;stroke-width:15;stroke-linecap:round;stroke-linejoin:round;stroke-miterlimit:10;stroke-dasharray:none;stroke-opacity:1"
             id="path209" /></g><g
           id="g211"
           transform="translate(252.7324,333.2263)"><path
             d="m 0,0 v 0 c 0,14.464 11.726,26.189 26.189,26.189 h 108.223 c 14.464,0 26.19,-11.725 26.19,-26.189 0,-14.464 -11.726,-26.189 -26.19,-26.189 H 26.189 C 11.726,-26.189 0,-14.464 0,0 Z"
             style="fill:none;stroke:#000000;stroke-width:15;stroke-linecap:round;stroke-linejoin:round;stroke-miterlimit:10;stroke-dasharray:none;stroke-opacity:1"
             id="path213" /></g><g
           id="g215"
           transform="translate(444.2871,504.4927)"><path
             d="m 0,0 -9.66,-106.756 c -1.97,-21.699 -20.159,-38.318 -41.948,-38.318 h -119.286 c -21.789,0 -39.988,16.619 -41.948,38.318 L -222.512,0 h 36.759 l 6.247,-46.794 c 1.152,-8.63 8.514,-15.074 17.219,-15.074 h 0.001 c 9.594,0 17.371,7.778 17.371,17.372 V 0 h 67.328 v -44.496 c 0,-9.594 7.777,-17.372 17.371,-17.372 8.706,0 16.068,6.444 17.22,15.074 L -36.749,0 Z"
             style="fill:none;stroke:#000000;stroke-width:15;stroke-linecap:round;stroke-linejoin:round;stroke-miterlimit:10;stroke-dasharray:none;stroke-opacity:1"
             id="path217" /></g></g></g></g></svg>
