<?xml version="1.0" encoding="utf-8"?>
<!-- Generator: Adobe Illustrator 27.5.0, SVG Export Plug-In . SVG Version: 6.00 Build 0)  -->
<svg version="1.1" id="BACKGROUND" xmlns="http://www.w3.org/2000/svg" xmlns:xlink="http://www.w3.org/1999/xlink" x="0px" y="0px"
	 viewBox="0 0 750 500" style="enable-background:new 0 0 750 500;" xml:space="preserve">
<g>
	<rect style="fill:#FFFFFF;" width="750" height="500"/>
	<g>
		<g>
			<circle style="fill:#29B3FF;" cx="50.81" cy="64.441" r="32.59"/>
			<g>
				<defs>
					
						<ellipse id="SVGID_1_" transform="matrix(0.1602 -0.9871 0.9871 0.1602 0.7696 107.7878)" cx="63.729" cy="53.442" rx="32.589" ry="32.59"/>
				</defs>
				<clipPath id="SVGID_00000005263995001590907620000012652773697782782347_">
					<use xlink:href="#SVGID_1_"  style="overflow:visible;"/>
				</clipPath>
				<g style="clip-path:url(#SVGID_00000005263995001590907620000012652773697782782347_);">
					<g>
						<path style="fill:none;stroke:#000000;stroke-width:3;stroke-miterlimit:10;" d="M25.077,20.273c4.406,0,4.406,4,8.812,4
							c4.405,0,4.405-4,8.811-4s4.405,4,8.811,4c4.405,0,4.405-4,8.811-4c4.407,0,4.407,4,8.813,4c4.408,0,4.408-4,8.816-4
							c4.407,0,4.407,4,8.813,4c4.41,0,4.41-4,8.82-4c4.41,0,4.41,4,8.819,4"/>
					</g>
					<g>
						<path style="fill:none;stroke:#000000;stroke-width:3;stroke-miterlimit:10;" d="M25.077,29.178c4.406,0,4.406,4,8.812,4
							c4.405,0,4.405-4,8.811-4s4.405,4,8.811,4c4.405,0,4.405-4,8.811-4c4.407,0,4.407,4,8.813,4c4.408,0,4.408-4,8.816-4
							c4.407,0,4.407,4,8.813,4c4.41,0,4.41-4,8.82-4c4.41,0,4.41,4,8.819,4"/>
					</g>
					<g>
						<path style="fill:none;stroke:#000000;stroke-width:3;stroke-miterlimit:10;" d="M25.077,38.084c4.406,0,4.406,4,8.812,4
							c4.405,0,4.405-4,8.811-4s4.405,4,8.811,4c4.405,0,4.405-4,8.811-4c4.407,0,4.407,4,8.813,4c4.408,0,4.408-4,8.816-4
							c4.407,0,4.407,4,8.813,4c4.41,0,4.41-4,8.82-4c4.41,0,4.41,4,8.819,4"/>
					</g>
					<g>
						<path style="fill:none;stroke:#000000;stroke-width:3;stroke-miterlimit:10;" d="M25.077,46.989c4.406,0,4.406,4,8.812,4
							c4.405,0,4.405-4,8.811-4s4.405,4,8.811,4c4.405,0,4.405-4,8.811-4c4.407,0,4.407,4,8.813,4c4.408,0,4.408-4,8.816-4
							c4.407,0,4.407,4,8.813,4c4.41,0,4.41-4,8.82-4c4.41,0,4.41,4,8.819,4"/>
					</g>
					<g>
						<path style="fill:none;stroke:#000000;stroke-width:3;stroke-miterlimit:10;" d="M25.077,55.894c4.406,0,4.406,4,8.812,4
							c4.405,0,4.405-4,8.811-4s4.405,4,8.811,4c4.405,0,4.405-4,8.811-4c4.407,0,4.407,4,8.813,4c4.408,0,4.408-4,8.816-4
							c4.407,0,4.407,4,8.813,4c4.41,0,4.41-4,8.82-4c4.41,0,4.41,4,8.819,4"/>
					</g>
					<g>
						<path style="fill:none;stroke:#000000;stroke-width:3;stroke-miterlimit:10;" d="M25.077,64.8c4.406,0,4.406,4,8.812,4
							c4.405,0,4.405-4,8.811-4s4.405,4,8.811,4c4.405,0,4.405-4,8.811-4c4.407,0,4.407,4,8.813,4c4.408,0,4.408-4,8.816-4
							c4.407,0,4.407,4,8.813,4c4.41,0,4.41-4,8.82-4c4.41,0,4.41,4,8.819,4"/>
					</g>
					<g>
						<path style="fill:none;stroke:#000000;stroke-width:3;stroke-miterlimit:10;" d="M25.077,73.705c4.406,0,4.406,4,8.812,4
							c4.405,0,4.405-4,8.811-4s4.405,4,8.811,4c4.405,0,4.405-4,8.811-4c4.407,0,4.407,4,8.813,4c4.408,0,4.408-4,8.816-4
							c4.407,0,4.407,4,8.813,4c4.41,0,4.41-4,8.82-4c4.41,0,4.41,4,8.819,4"/>
					</g>
					<g>
						<path style="fill:none;stroke:#000000;stroke-width:3;stroke-miterlimit:10;" d="M25.077,82.61c4.406,0,4.406,4,8.812,4
							c4.405,0,4.405-4,8.811-4s4.405,4,8.811,4c4.405,0,4.405-4,8.811-4c4.407,0,4.407,4,8.813,4c4.408,0,4.408-4,8.816-4
							c4.407,0,4.407,4,8.813,4c4.41,0,4.41-4,8.82-4c4.41,0,4.41,4,8.819,4"/>
					</g>
				</g>
			</g>
		</g>
		<g>
			<rect x="192.157" y="34.242" style="fill:#29B3FF;" width="65.179" height="65.179"/>
			<g>
				
					<rect x="211.357" y="20.852" style="fill:none;stroke:#000000;stroke-width:2;stroke-miterlimit:10;" width="65.179" height="65.179"/>
				
					<rect x="220.957" y="30.452" style="fill:none;stroke:#000000;stroke-width:2;stroke-miterlimit:10;" width="45.979" height="45.979"/>
				
					<rect x="230.557" y="40.052" style="fill:none;stroke:#000000;stroke-width:2;stroke-miterlimit:10;" width="26.779" height="26.779"/>
			</g>
		</g>
		<g>
			<polygon style="fill:#29B3FF;" points="355.963,149.616 355.963,116.41 327.206,99.807 298.449,116.41 298.449,149.616 
				327.206,166.219 			"/>
			<g>
				<defs>
					<polygon id="SVGID_00000052105788357463142900000014854696266529445811_" points="363.694,139.4 363.694,106.194 
						334.936,89.591 306.179,106.194 306.179,139.4 334.936,156.003 					"/>
				</defs>
				<clipPath id="SVGID_00000159449874316381518420000003635097003740382371_">
					<use xlink:href="#SVGID_00000052105788357463142900000014854696266529445811_"  style="overflow:visible;"/>
				</clipPath>
				<g style="clip-path:url(#SVGID_00000159449874316381518420000003635097003740382371_);">
					<line style="fill:none;stroke:#000000;stroke-miterlimit:10;" x1="302.726" y1="89.591" x2="365.884" y2="89.591"/>
					<line style="fill:none;stroke:#000000;stroke-miterlimit:10;" x1="302.726" y1="98.529" x2="365.884" y2="98.529"/>
					<line style="fill:none;stroke:#000000;stroke-miterlimit:10;" x1="302.726" y1="107.467" x2="365.884" y2="107.467"/>
					<line style="fill:none;stroke:#000000;stroke-miterlimit:10;" x1="302.726" y1="116.405" x2="365.884" y2="116.405"/>
					<line style="fill:none;stroke:#000000;stroke-miterlimit:10;" x1="302.726" y1="125.343" x2="365.884" y2="125.343"/>
					<line style="fill:none;stroke:#000000;stroke-miterlimit:10;" x1="302.726" y1="134.281" x2="365.884" y2="134.281"/>
					<line style="fill:none;stroke:#000000;stroke-miterlimit:10;" x1="302.726" y1="143.22" x2="365.884" y2="143.22"/>
					<line style="fill:none;stroke:#000000;stroke-miterlimit:10;" x1="302.726" y1="152.158" x2="365.884" y2="152.158"/>
					<line style="fill:none;stroke:#000000;stroke-miterlimit:10;" x1="302.726" y1="161.096" x2="365.884" y2="161.096"/>
				</g>
			</g>
		</g>
		<g>
			<polygon style="fill:#29B3FF;" points="417.71,66.831 417.71,20.852 463.689,20.852 			"/>
			<polygon points="434.889,80.958 434.889,34.979 480.868,34.979 			"/>
		</g>
		<g>
			<polygon style="fill:none;stroke:#000000;stroke-miterlimit:10;" points="625.912,439.006 625.912,463.867 601.05,463.867 			"/>
			<polygon style="fill:none;stroke:#000000;stroke-miterlimit:10;" points="616.623,431.367 616.623,456.229 591.761,456.229 			
				"/>
		</g>
		<g>
			<rect x="517.76" y="27.696" style="fill:#29B3FF;" width="23.884" height="52.638"/>
			<rect x="525.661" y="20.852" width="1.156" height="52.638"/>
			<rect x="531.525" y="20.852" width="1.156" height="52.638"/>
			<rect x="537.388" y="20.852" width="1.156" height="52.638"/>
			<rect x="543.253" y="20.852" width="1.156" height="52.638"/>
			<rect x="549.117" y="20.852" width="1.156" height="52.638"/>
			<rect x="554.981" y="20.852" width="1.156" height="52.638"/>
		</g>
		<g>
			
				<ellipse transform="matrix(0.2298 -0.9732 0.9732 0.2298 474.5362 717.3306)" style="fill:#29B3FF;" cx="690.461" cy="58.864" rx="33.357" ry="33.357"/>
			<g>
				<path d="M698.386,23.05c0,1.214-0.984,2.198-2.198,2.198s-2.198-0.984-2.198-2.198s0.984-2.198,2.198-2.198
					S698.386,21.836,698.386,23.05z"/>
				<path d="M683.609,25.832c0.607,1.051,0.247,2.396-0.805,3.002c-1.051,0.607-2.395,0.247-3.002-0.805
					c-0.607-1.051-0.247-2.396,0.805-3.002C681.657,24.42,683.002,24.781,683.609,25.832z"/>
				<path d="M672.201,35.63c1.051,0.607,1.411,1.951,0.805,3.002c-0.607,1.051-1.951,1.411-3.002,0.805
					c-1.051-0.607-1.411-1.951-0.805-3.002C669.806,35.383,671.15,35.023,672.201,35.63z"/>
				<path d="M667.222,49.819c1.214,0,2.198,0.984,2.198,2.198c0,1.214-0.984,2.198-2.198,2.198c-1.214,0-2.198-0.984-2.198-2.198
					C665.024,50.803,666.008,49.819,667.222,49.819z"/>
				<path d="M670.003,64.597c1.051-0.607,2.395-0.247,3.002,0.805c0.607,1.051,0.247,2.395-0.805,3.002
					c-1.051,0.607-2.396,0.247-3.002-0.804C668.592,66.548,668.952,65.204,670.003,64.597z"/>
				<path d="M679.802,76.004c0.607-1.051,1.951-1.411,3.002-0.805c1.051,0.607,1.411,1.951,0.805,3.002
					c-0.607,1.051-1.951,1.411-3.002,0.804C679.555,78.4,679.195,77.056,679.802,76.004z"/>
				<path d="M693.991,80.984c0-1.214,0.984-2.198,2.198-2.198s2.198,0.984,2.198,2.198s-0.984,2.198-2.198,2.198
					S693.991,82.198,693.991,80.984z"/>
				<path d="M708.769,78.202c-0.607-1.051-0.247-2.396,0.805-3.002c1.051-0.607,2.396-0.247,3.002,0.805
					c0.607,1.051,0.247,2.396-0.805,3.002C710.72,79.614,709.375,79.254,708.769,78.202z"/>
				<path d="M720.176,68.404c-1.051-0.607-1.411-1.951-0.805-3.002c0.607-1.051,1.951-1.411,3.002-0.805
					c1.051,0.607,1.411,1.951,0.805,3.003C722.571,68.651,721.227,69.011,720.176,68.404z"/>
				<path d="M725.156,54.215c-1.214,0-2.198-0.984-2.198-2.198c0-1.214,0.984-2.198,2.198-2.198c1.214,0,2.198,0.984,2.198,2.198
					C727.354,53.231,726.37,54.215,725.156,54.215z"/>
				<path d="M722.374,39.437c-1.051,0.607-2.396,0.247-3.002-0.805c-0.607-1.051-0.247-2.396,0.805-3.002
					c1.051-0.607,2.395-0.247,3.002,0.805C723.785,37.486,723.425,38.83,722.374,39.437z"/>
				<path d="M712.576,28.03c-0.607,1.051-1.951,1.412-3.002,0.805c-1.051-0.607-1.411-1.951-0.805-3.002
					c0.607-1.051,1.951-1.412,3.002-0.805C712.822,25.634,713.182,26.979,712.576,28.03z"/>
			</g>
		</g>
		<g>
			<path style="fill:none;stroke:#000000;stroke-width:3.9115;stroke-miterlimit:10;" d="M243.327,456.349
				c0-11.936-9.676-21.611-21.611-21.611c-11.936,0-21.611,9.676-21.611,21.611H243.327z"/>
			<path style="fill:#29B3FF;" d="M192.157,452.927c0,16.324,13.234,29.558,29.558,29.558c16.325,0,29.558-13.234,29.558-29.558
				H192.157z"/>
		</g>
		<g>
			<g>
				<path d="M55.731,351.885c0,0.859-0.696,1.555-1.555,1.555c-0.859,0-1.555-0.696-1.555-1.555s0.696-1.555,1.555-1.555
					C55.035,350.331,55.731,351.027,55.731,351.885z"/>
				<path d="M55.731,363.241c0,0.858-0.696,1.555-1.555,1.555c-0.859,0-1.555-0.696-1.555-1.555c0-0.859,0.696-1.555,1.555-1.555
					C55.035,361.686,55.731,362.382,55.731,363.241z"/>
				<path d="M55.731,374.596c0,0.859-0.696,1.555-1.555,1.555c-0.859,0-1.555-0.696-1.555-1.555c0-0.859,0.696-1.555,1.555-1.555
					C55.035,373.041,55.731,373.737,55.731,374.596z"/>
				<path d="M55.731,385.951c0,0.859-0.696,1.555-1.555,1.555c-0.859,0-1.555-0.696-1.555-1.555c0-0.859,0.696-1.555,1.555-1.555
					C55.035,384.396,55.731,385.092,55.731,385.951z"/>
				<path d="M55.731,397.306c0,0.859-0.696,1.555-1.555,1.555c-0.859,0-1.555-0.696-1.555-1.555c0-0.859,0.696-1.555,1.555-1.555
					C55.035,395.751,55.731,396.447,55.731,397.306z"/>
				<path d="M55.731,408.661c0,0.859-0.696,1.555-1.555,1.555c-0.859,0-1.555-0.696-1.555-1.555c0-0.858,0.696-1.555,1.555-1.555
					C55.035,407.106,55.731,407.802,55.731,408.661z"/>
			</g>
			<g>
				<path style="fill:#29B3FF;" d="M65.531,351.885c0,0.859-0.696,1.555-1.554,1.555c-0.859,0-1.555-0.696-1.555-1.555
					s0.696-1.555,1.555-1.555C64.835,350.331,65.531,351.027,65.531,351.885z"/>
				<path style="fill:#29B3FF;" d="M65.531,363.241c0,0.858-0.696,1.555-1.554,1.555c-0.859,0-1.555-0.696-1.555-1.555
					c0-0.859,0.696-1.555,1.555-1.555C64.835,361.686,65.531,362.382,65.531,363.241z"/>
				<path style="fill:#29B3FF;" d="M65.531,374.596c0,0.859-0.696,1.555-1.554,1.555c-0.859,0-1.555-0.696-1.555-1.555
					c0-0.859,0.696-1.555,1.555-1.555C64.835,373.041,65.531,373.737,65.531,374.596z"/>
				<path style="fill:#29B3FF;" d="M65.531,385.951c0,0.859-0.696,1.555-1.554,1.555c-0.859,0-1.555-0.696-1.555-1.555
					c0-0.859,0.696-1.555,1.555-1.555C64.835,384.396,65.531,385.092,65.531,385.951z"/>
				<path style="fill:#29B3FF;" d="M65.531,397.306c0,0.859-0.696,1.555-1.554,1.555c-0.859,0-1.555-0.696-1.555-1.555
					c0-0.859,0.696-1.555,1.555-1.555C64.835,395.751,65.531,396.447,65.531,397.306z"/>
				<path style="fill:#29B3FF;" d="M65.531,408.661c0,0.859-0.696,1.555-1.554,1.555c-0.859,0-1.555-0.696-1.555-1.555
					c0-0.858,0.696-1.555,1.555-1.555C64.835,407.106,65.531,407.802,65.531,408.661z"/>
			</g>
			<g>
				<path d="M75.467,351.885c0,0.859-0.696,1.555-1.555,1.555c-0.858,0-1.554-0.696-1.554-1.555s0.696-1.555,1.554-1.555
					C74.771,350.331,75.467,351.027,75.467,351.885z"/>
				<path d="M75.467,363.241c0,0.858-0.696,1.555-1.555,1.555c-0.858,0-1.554-0.696-1.554-1.555c0-0.859,0.696-1.555,1.554-1.555
					C74.771,361.686,75.467,362.382,75.467,363.241z"/>
				<path d="M75.467,374.596c0,0.859-0.696,1.555-1.555,1.555c-0.858,0-1.554-0.696-1.554-1.555c0-0.859,0.696-1.555,1.554-1.555
					C74.771,373.041,75.467,373.737,75.467,374.596z"/>
				<path d="M75.467,385.951c0,0.859-0.696,1.555-1.555,1.555c-0.858,0-1.554-0.696-1.554-1.555c0-0.859,0.696-1.555,1.554-1.555
					C74.771,384.396,75.467,385.092,75.467,385.951z"/>
				<path d="M75.467,397.306c0,0.859-0.696,1.555-1.555,1.555c-0.858,0-1.554-0.696-1.554-1.555c0-0.859,0.696-1.555,1.554-1.555
					C74.771,395.751,75.467,396.447,75.467,397.306z"/>
				<path d="M75.467,408.661c0,0.859-0.696,1.555-1.555,1.555c-0.858,0-1.554-0.696-1.554-1.555c0-0.858,0.696-1.555,1.554-1.555
					C74.771,407.106,75.467,407.802,75.467,408.661z"/>
			</g>
			<g>
				<path style="fill:#29B3FF;" d="M85.267,351.885c0,0.859-0.696,1.555-1.555,1.555c-0.858,0-1.554-0.696-1.554-1.555
					s0.696-1.555,1.554-1.555C84.571,350.331,85.267,351.027,85.267,351.885z"/>
				<path style="fill:#29B3FF;" d="M85.267,363.241c0,0.858-0.696,1.555-1.555,1.555c-0.858,0-1.554-0.696-1.554-1.555
					c0-0.859,0.696-1.555,1.554-1.555C84.571,361.686,85.267,362.382,85.267,363.241z"/>
				<path style="fill:#29B3FF;" d="M85.267,374.596c0,0.859-0.696,1.555-1.555,1.555c-0.858,0-1.554-0.696-1.554-1.555
					c0-0.859,0.696-1.555,1.554-1.555C84.571,373.041,85.267,373.737,85.267,374.596z"/>
				<path style="fill:#29B3FF;" d="M85.267,385.951c0,0.859-0.696,1.555-1.555,1.555c-0.858,0-1.554-0.696-1.554-1.555
					c0-0.859,0.696-1.555,1.554-1.555C84.571,384.396,85.267,385.092,85.267,385.951z"/>
				<path style="fill:#29B3FF;" d="M85.267,397.306c0,0.859-0.696,1.555-1.555,1.555c-0.858,0-1.554-0.696-1.554-1.555
					c0-0.859,0.696-1.555,1.554-1.555C84.571,395.751,85.267,396.447,85.267,397.306z"/>
				<path style="fill:#29B3FF;" d="M85.267,408.661c0,0.859-0.696,1.555-1.555,1.555c-0.858,0-1.554-0.696-1.554-1.555
					c0-0.858,0.696-1.555,1.554-1.555C84.571,407.106,85.267,407.802,85.267,408.661z"/>
			</g>
			<g>
				<path d="M95.203,351.885c0,0.859-0.696,1.555-1.555,1.555c-0.858,0-1.554-0.696-1.554-1.555s0.696-1.555,1.554-1.555
					C94.507,350.331,95.203,351.027,95.203,351.885z"/>
				<path d="M95.203,363.241c0,0.858-0.696,1.555-1.555,1.555c-0.858,0-1.554-0.696-1.554-1.555c0-0.859,0.696-1.555,1.554-1.555
					C94.507,361.686,95.203,362.382,95.203,363.241z"/>
				<path d="M95.203,374.596c0,0.859-0.696,1.555-1.555,1.555c-0.858,0-1.554-0.696-1.554-1.555c0-0.859,0.696-1.555,1.554-1.555
					C94.507,373.041,95.203,373.737,95.203,374.596z"/>
				<path d="M95.203,385.951c0,0.859-0.696,1.555-1.555,1.555c-0.858,0-1.554-0.696-1.554-1.555c0-0.859,0.696-1.555,1.554-1.555
					C94.507,384.396,95.203,385.092,95.203,385.951z"/>
				<path d="M95.203,397.306c0,0.859-0.696,1.555-1.555,1.555c-0.858,0-1.554-0.696-1.554-1.555c0-0.859,0.696-1.555,1.554-1.555
					C94.507,395.751,95.203,396.447,95.203,397.306z"/>
				<path d="M95.203,408.661c0,0.859-0.696,1.555-1.555,1.555c-0.858,0-1.554-0.696-1.554-1.555c0-0.858,0.696-1.555,1.554-1.555
					C94.507,407.106,95.203,407.802,95.203,408.661z"/>
			</g>
			<g>
				<path style="fill:#29B3FF;" d="M105.004,351.885c0,0.859-0.696,1.555-1.555,1.555c-0.858,0-1.554-0.696-1.554-1.555
					s0.696-1.555,1.554-1.555C104.308,350.331,105.004,351.027,105.004,351.885z"/>
				<path style="fill:#29B3FF;" d="M105.004,363.241c0,0.858-0.696,1.555-1.555,1.555c-0.858,0-1.554-0.696-1.554-1.555
					c0-0.859,0.696-1.555,1.554-1.555C104.308,361.686,105.004,362.382,105.004,363.241z"/>
				<path style="fill:#29B3FF;" d="M105.004,374.596c0,0.859-0.696,1.555-1.555,1.555c-0.858,0-1.554-0.696-1.554-1.555
					c0-0.859,0.696-1.555,1.554-1.555C104.308,373.041,105.004,373.737,105.004,374.596z"/>
				<path style="fill:#29B3FF;" d="M105.004,385.951c0,0.859-0.696,1.555-1.555,1.555c-0.858,0-1.554-0.696-1.554-1.555
					c0-0.859,0.696-1.555,1.554-1.555C104.308,384.396,105.004,385.092,105.004,385.951z"/>
				<path style="fill:#29B3FF;" d="M105.004,397.306c0,0.859-0.696,1.555-1.555,1.555c-0.858,0-1.554-0.696-1.554-1.555
					c0-0.859,0.696-1.555,1.554-1.555C104.308,395.751,105.004,396.447,105.004,397.306z"/>
				<path style="fill:#29B3FF;" d="M105.004,408.661c0,0.859-0.696,1.555-1.555,1.555c-0.858,0-1.554-0.696-1.554-1.555
					c0-0.858,0.696-1.555,1.554-1.555C104.308,407.106,105.004,407.802,105.004,408.661z"/>
			</g>
		</g>
		<g>
			<polygon style="fill:none;stroke:#000000;stroke-width:0.75;stroke-miterlimit:10;" points="232.971,354.065 232.971,316.115 
				200.104,297.139 167.238,316.115 167.238,354.065 200.104,373.041 			"/>
			<polygon style="fill:none;stroke:#000000;stroke-width:0.75;stroke-miterlimit:10;" points="226.333,350.233 226.333,319.947 
				200.104,304.803 173.875,319.947 173.875,350.233 200.104,365.376 			"/>
			<polygon style="fill:none;stroke:#000000;stroke-width:0.75;stroke-miterlimit:10;" points="219.695,346.401 219.695,323.779 
				200.104,312.468 180.513,323.779 180.513,346.401 200.104,357.712 			"/>
			<polygon style="fill:none;stroke:#000000;stroke-width:0.75;stroke-miterlimit:10;" points="213.058,342.569 213.058,327.611 
				200.104,320.133 187.151,327.611 187.151,342.569 200.104,350.047 			"/>
			<polygon style="fill:none;stroke:#000000;stroke-width:0.75;stroke-miterlimit:10;" points="206.42,338.736 206.42,331.444 
				200.104,327.797 193.788,331.444 193.788,338.736 200.104,342.383 			"/>
		</g>
		<g>
			<polygon style="fill:#29B3FF;" points="99.323,327.061 99.323,264.923 161.461,264.923 			"/>
			<g>
				<defs>
					<polygon id="SVGID_00000144305500415520135980000016722870174684346035_" points="110.671,318.535 110.671,256.397 
						172.809,256.397 					"/>
				</defs>
				<clipPath id="SVGID_00000006671594499565342620000001295948028523388843_">
					<use xlink:href="#SVGID_00000144305500415520135980000016722870174684346035_"  style="overflow:visible;"/>
				</clipPath>
				<g style="clip-path:url(#SVGID_00000006671594499565342620000001295948028523388843_);">
					<line style="fill:none;stroke:#000000;stroke-miterlimit:10;" x1="107.959" y1="256.397" x2="178.292" y2="256.397"/>
					<line style="fill:none;stroke:#000000;stroke-miterlimit:10;" x1="107.959" y1="261.323" x2="178.292" y2="261.323"/>
					<line style="fill:none;stroke:#000000;stroke-miterlimit:10;" x1="107.959" y1="266.249" x2="178.292" y2="266.249"/>
					<line style="fill:none;stroke:#000000;stroke-miterlimit:10;" x1="107.959" y1="271.176" x2="178.292" y2="271.176"/>
					<line style="fill:none;stroke:#000000;stroke-miterlimit:10;" x1="107.959" y1="276.102" x2="178.292" y2="276.102"/>
					<line style="fill:none;stroke:#000000;stroke-miterlimit:10;" x1="107.959" y1="281.028" x2="178.292" y2="281.028"/>
					<line style="fill:none;stroke:#000000;stroke-miterlimit:10;" x1="107.959" y1="285.955" x2="178.292" y2="285.955"/>
					<line style="fill:none;stroke:#000000;stroke-miterlimit:10;" x1="107.959" y1="290.881" x2="178.292" y2="290.881"/>
					<line style="fill:none;stroke:#000000;stroke-miterlimit:10;" x1="107.959" y1="295.807" x2="178.292" y2="295.807"/>
					<line style="fill:none;stroke:#000000;stroke-miterlimit:10;" x1="107.959" y1="300.734" x2="178.292" y2="300.734"/>
					<line style="fill:none;stroke:#000000;stroke-miterlimit:10;" x1="107.959" y1="305.66" x2="178.292" y2="305.66"/>
					<line style="fill:none;stroke:#000000;stroke-miterlimit:10;" x1="107.959" y1="310.586" x2="178.292" y2="310.586"/>
					<line style="fill:none;stroke:#000000;stroke-miterlimit:10;" x1="107.959" y1="315.513" x2="178.292" y2="315.513"/>
					<line style="fill:none;stroke:#000000;stroke-miterlimit:10;" x1="107.959" y1="320.439" x2="178.292" y2="320.439"/>
				</g>
			</g>
		</g>
		<g>
			
				<ellipse transform="matrix(0.1602 -0.9871 0.9871 0.1602 -107.733 236.7513)" style="fill:none;stroke:#000000;stroke-width:3;stroke-miterlimit:10;" cx="85.267" cy="181.688" rx="31.394" ry="31.394"/>
			<path style="fill:none;stroke:#29B3FF;stroke-width:10;stroke-miterlimit:10;" d="M85.267,213.082
				c-17.338,0-31.394-14.055-31.394-31.394s14.056-31.394,31.394-31.394"/>
		</g>
		<path style="fill:none;stroke:#29B3FF;stroke-width:16.0199;stroke-miterlimit:10;" d="M250.217,174.842
			c-10.683,0-19.343-8.66-19.343-19.343s8.66-19.343,19.343-19.343"/>
		<g>
			<path style="fill:none;stroke:#29B3FF;stroke-width:16.0199;stroke-miterlimit:10;" d="M444.561,171.294
				c-10.683,0-19.343-8.66-19.343-19.343c0-10.683,8.66-19.343,19.343-19.343"/>
			<path style="fill:none;stroke:#000000;stroke-width:9.2104;stroke-miterlimit:10;" d="M450.553,140.83
				c6.142,0,11.121,4.979,11.121,11.121c0,6.142-4.979,11.121-11.121,11.121"/>
		</g>
		<path style="fill:none;stroke:#000000;stroke-width:13.4343;stroke-miterlimit:10;" d="M350.21,60.128
			c0-8.959,7.262-16.221,16.221-16.221c8.959,0,16.221,7.262,16.221,16.221"/>
		<g>
			
				<ellipse transform="matrix(0.2298 -0.9732 0.9732 0.2298 47.5805 822.7476)" style="fill:none;stroke:#000000;stroke-width:2;stroke-miterlimit:10;" cx="543.584" cy="381.313" rx="14.021" ry="14.021"/>
			
				<ellipse transform="matrix(0.2298 -0.9732 0.9732 0.2298 66.1546 825.5637)" style="fill:none;stroke:#29B3FF;stroke-width:2;stroke-miterlimit:10;" cx="554.649" cy="370.987" rx="14.021" ry="14.021"/>
		</g>
		<g>
			<polygon points="42.536,482.485 42.536,462.315 62.707,462.315 			"/>
			<polygon style="fill:#29B3FF;" points="38.391,482.485 38.391,462.315 18.22,462.315 			"/>
			<polygon points="38.391,437.075 38.391,457.245 18.22,457.245 			"/>
			<polygon style="fill:#29B3FF;" points="42.536,437.075 42.536,457.245 62.707,457.245 			"/>
		</g>
		<g>
			<polyline style="fill:none;stroke:#000000;stroke-width:2.5824;stroke-miterlimit:10;" points="303.602,395.166 313.59,403.774 
				323.579,395.166 333.564,403.774 343.552,395.166 353.543,403.774 363.531,395.166 373.526,403.774 383.521,395.166 			"/>
			<polyline style="fill:none;stroke:#000000;stroke-width:2.5824;stroke-miterlimit:10;" points="303.602,410.236 313.59,418.844 
				323.579,410.236 333.564,418.844 343.552,410.236 353.543,418.844 363.531,410.236 373.526,418.844 383.521,410.236 			"/>
			<polyline style="fill:none;stroke:#000000;stroke-width:2.5824;stroke-miterlimit:10;" points="303.602,425.305 313.59,433.913 
				323.579,425.305 333.564,433.913 343.552,425.305 353.543,433.913 363.531,425.305 373.526,433.913 383.521,425.305 			"/>
		</g>
		<g>
			<rect x="405.499" y="444.343" style="fill:#29B3FF;" width="16.914" height="16.914"/>
			<rect x="427.496" y="444.343" width="16.914" height="16.914"/>
			<rect x="427.496" y="465.571" style="fill:#29B3FF;" width="16.914" height="16.914"/>
		</g>
		<g>
			
				<rect x="494.627" y="441.18" style="fill:none;stroke:#000000;stroke-width:1.4416;stroke-miterlimit:10;" width="41.305" height="41.305"/>
			<rect x="502.093" y="448.646" style="fill:#29B3FF;" width="26.373" height="26.373"/>
		</g>
		<g>
			<path style="fill:#29B3FF;" d="M699.815,426.134c0,0.703-0.57,1.273-1.273,1.273s-1.273-0.57-1.273-1.273
				c0-0.703,0.57-1.273,1.273-1.273S699.815,425.431,699.815,426.134z"/>
			<path style="fill:#29B3FF;" d="M695.013,426.331c0.122,0.693-0.34,1.353-1.033,1.475c-0.693,0.122-1.353-0.34-1.475-1.033
				c-0.122-0.693,0.34-1.353,1.033-1.475C694.231,425.176,694.891,425.639,695.013,426.331z"/>
			<path style="fill:#29B3FF;" d="M690.319,427.359c0.24,0.661-0.1,1.392-0.761,1.632c-0.661,0.24-1.392-0.1-1.632-0.761
				c-0.24-0.661,0.1-1.392,0.761-1.632C689.348,426.358,690.078,426.699,690.319,427.359z"/>
			<path style="fill:#29B3FF;" d="M685.875,429.187c0.352,0.609,0.143,1.388-0.466,1.74c-0.609,0.352-1.388,0.143-1.74-0.466
				c-0.352-0.609-0.143-1.388,0.466-1.74C684.744,428.369,685.523,428.578,685.875,429.187z"/>
			<path style="fill:#29B3FF;" d="M681.815,431.759c0.452,0.539,0.382,1.342-0.157,1.794c-0.539,0.452-1.342,0.382-1.794-0.157
				c-0.452-0.539-0.382-1.342,0.157-1.794C680.56,431.15,681.363,431.22,681.815,431.759z"/>
			<path style="fill:#29B3FF;" d="M678.264,434.996c0.539,0.452,0.609,1.255,0.157,1.794c-0.452,0.539-1.255,0.609-1.794,0.157
				c-0.539-0.452-0.609-1.255-0.157-1.794C676.922,434.614,677.725,434.544,678.264,434.996z"/>
			<path style="fill:#29B3FF;" d="M675.329,438.801c0.609,0.352,0.818,1.13,0.466,1.74c-0.352,0.609-1.13,0.818-1.74,0.466
				c-0.609-0.352-0.818-1.131-0.466-1.74C673.941,438.658,674.72,438.449,675.329,438.801z"/>
			<path style="fill:#29B3FF;" d="M673.099,443.057c0.661,0.241,1.002,0.971,0.761,1.632c-0.241,0.661-0.971,1.002-1.632,0.761
				c-0.661-0.241-1.002-0.971-0.761-1.632C671.707,443.158,672.438,442.817,673.099,443.057z"/>
			<path style="fill:#29B3FF;" d="M671.642,447.637c0.693,0.122,1.155,0.783,1.033,1.475c-0.122,0.693-0.783,1.155-1.475,1.033
				c-0.693-0.122-1.155-0.783-1.033-1.475C670.289,447.977,670.949,447.515,671.642,447.637z"/>
			<path style="fill:#29B3FF;" d="M671.003,452.4c0.703,0,1.273,0.57,1.273,1.273s-0.57,1.273-1.273,1.273
				c-0.703,0-1.273-0.57-1.273-1.273S670.299,452.4,671.003,452.4z"/>
			<path style="fill:#29B3FF;" d="M671.2,457.201c0.693-0.122,1.353,0.34,1.475,1.033c0.122,0.693-0.34,1.353-1.033,1.475
				c-0.693,0.122-1.353-0.34-1.475-1.033C670.045,457.984,670.507,457.323,671.2,457.201z"/>
			<path style="fill:#29B3FF;" d="M672.228,461.895c0.661-0.241,1.392,0.1,1.632,0.761c0.24,0.661-0.1,1.392-0.761,1.632
				c-0.661,0.241-1.392-0.1-1.632-0.761C671.226,462.866,671.567,462.136,672.228,461.895z"/>
			<path style="fill:#29B3FF;" d="M674.055,466.34c0.609-0.352,1.388-0.143,1.74,0.466c0.352,0.609,0.143,1.388-0.466,1.74
				c-0.609,0.352-1.388,0.143-1.74-0.466C673.237,467.47,673.446,466.691,674.055,466.34z"/>
			<path style="fill:#29B3FF;" d="M676.627,470.399c0.539-0.452,1.342-0.382,1.794,0.157c0.452,0.539,0.382,1.342-0.157,1.794
				c-0.539,0.452-1.342,0.382-1.794-0.157C676.018,471.654,676.088,470.851,676.627,470.399z"/>
			<path style="fill:#29B3FF;" d="M679.864,473.95c0.452-0.539,1.255-0.609,1.794-0.157c0.539,0.452,0.609,1.255,0.157,1.794
				c-0.452,0.539-1.255,0.609-1.794,0.157C679.482,475.292,679.412,474.489,679.864,473.95z"/>
			<path style="fill:#29B3FF;" d="M683.669,476.886c0.352-0.609,1.13-0.818,1.74-0.466c0.609,0.352,0.818,1.13,0.466,1.74
				c-0.352,0.609-1.13,0.818-1.74,0.466C683.526,478.273,683.317,477.495,683.669,476.886z"/>
			<path style="fill:#29B3FF;" d="M687.926,479.116c0.241-0.661,0.971-1.002,1.632-0.761c0.661,0.241,1.002,0.971,0.761,1.632
				c-0.241,0.661-0.971,1.002-1.632,0.761C688.026,480.507,687.685,479.776,687.926,479.116z"/>
			<path style="fill:#29B3FF;" d="M692.505,480.572c0.122-0.693,0.783-1.155,1.475-1.033c0.693,0.122,1.155,0.783,1.033,1.475
				c-0.122,0.693-0.783,1.155-1.475,1.033C692.846,481.925,692.383,481.265,692.505,480.572z"/>
			<path style="fill:#29B3FF;" d="M697.268,481.212c0-0.703,0.57-1.273,1.273-1.273s1.273,0.57,1.273,1.273
				c0,0.703-0.57,1.273-1.273,1.273S697.268,481.915,697.268,481.212z"/>
			<path style="fill:#29B3FF;" d="M702.069,481.015c-0.122-0.693,0.34-1.353,1.033-1.475c0.693-0.122,1.353,0.34,1.475,1.033
				c0.122,0.693-0.34,1.353-1.033,1.475C702.852,482.17,702.191,481.707,702.069,481.015z"/>
			<path style="fill:#29B3FF;" d="M706.763,479.987c-0.241-0.661,0.1-1.392,0.761-1.632c0.661-0.241,1.392,0.1,1.632,0.761
				c0.241,0.661-0.1,1.392-0.761,1.632C707.735,480.988,707.004,480.647,706.763,479.987z"/>
			<path style="fill:#29B3FF;" d="M711.208,478.159c-0.352-0.609-0.143-1.388,0.466-1.74c0.609-0.352,1.388-0.143,1.74,0.466
				c0.352,0.609,0.143,1.388-0.466,1.74C712.338,478.977,711.56,478.768,711.208,478.159z"/>
			<path style="fill:#29B3FF;" d="M715.267,475.587c-0.452-0.539-0.382-1.342,0.157-1.794c0.539-0.452,1.342-0.382,1.794,0.157
				c0.452,0.539,0.382,1.342-0.157,1.794C716.523,476.197,715.719,476.126,715.267,475.587z"/>
			<path style="fill:#29B3FF;" d="M718.819,472.35c-0.539-0.452-0.609-1.255-0.157-1.794c0.452-0.539,1.255-0.609,1.794-0.157
				c0.539,0.452,0.609,1.255,0.157,1.794C720.161,472.732,719.357,472.802,718.819,472.35z"/>
			<path style="fill:#29B3FF;" d="M721.754,468.545c-0.609-0.352-0.818-1.13-0.466-1.74c0.352-0.609,1.13-0.818,1.74-0.466
				c0.609,0.352,0.818,1.13,0.466,1.74C723.142,468.688,722.363,468.897,721.754,468.545z"/>
			<path style="fill:#29B3FF;" d="M723.984,464.288c-0.661-0.24-1.002-0.971-0.761-1.632c0.24-0.661,0.971-1.002,1.632-0.761
				s1.002,0.971,0.761,1.632C725.375,464.188,724.645,464.529,723.984,464.288z"/>
			<path style="fill:#29B3FF;" d="M725.441,459.709c-0.693-0.122-1.155-0.783-1.033-1.475c0.122-0.693,0.783-1.155,1.475-1.033
				c0.693,0.122,1.155,0.783,1.033,1.475C726.794,459.369,726.133,459.831,725.441,459.709z"/>
			<circle style="fill:#29B3FF;" cx="726.08" cy="453.673" r="1.273"/>
			<path style="fill:#29B3FF;" d="M725.883,450.145c-0.693,0.122-1.353-0.34-1.475-1.033c-0.122-0.693,0.34-1.353,1.033-1.475
				c0.693-0.122,1.353,0.34,1.475,1.033C727.038,449.362,726.575,450.023,725.883,450.145z"/>
			<path style="fill:#29B3FF;" d="M724.855,445.451c-0.661,0.241-1.392-0.1-1.632-0.761c-0.241-0.661,0.1-1.392,0.761-1.632
				c0.661-0.241,1.392,0.1,1.632,0.761S725.516,445.21,724.855,445.451z"/>
			<path style="fill:#29B3FF;" d="M723.027,441.006c-0.609,0.352-1.388,0.143-1.74-0.466c-0.352-0.609-0.143-1.388,0.466-1.74
				c0.609-0.352,1.388-0.143,1.74,0.466C723.845,439.876,723.636,440.655,723.027,441.006z"/>
			<path style="fill:#29B3FF;" d="M720.456,436.947c-0.539,0.452-1.342,0.382-1.794-0.157c-0.452-0.539-0.382-1.342,0.157-1.794
				c0.539-0.452,1.342-0.382,1.794,0.157C721.065,435.692,720.995,436.495,720.456,436.947z"/>
			<path style="fill:#29B3FF;" d="M717.218,433.396c-0.452,0.539-1.255,0.609-1.794,0.157c-0.539-0.452-0.609-1.255-0.157-1.794
				c0.452-0.539,1.255-0.609,1.794-0.157C717.6,432.054,717.67,432.857,717.218,433.396z"/>
			<path style="fill:#29B3FF;" d="M713.414,430.46c-0.352,0.609-1.13,0.818-1.74,0.466c-0.609-0.352-0.818-1.131-0.466-1.74
				c0.352-0.609,1.13-0.818,1.74-0.466C713.556,429.073,713.765,429.851,713.414,430.46z"/>
			<path style="fill:#29B3FF;" d="M709.157,428.23c-0.24,0.661-0.971,1.002-1.632,0.761c-0.661-0.241-1.002-0.971-0.761-1.632
				c0.241-0.661,0.971-1.002,1.632-0.761C709.057,426.839,709.397,427.57,709.157,428.23z"/>
			<path style="fill:#29B3FF;" d="M704.577,426.774c-0.122,0.693-0.783,1.155-1.475,1.033c-0.693-0.122-1.155-0.783-1.033-1.475
				c0.122-0.693,0.783-1.155,1.475-1.033C704.237,425.421,704.7,426.081,704.577,426.774z"/>
		</g>
		<g>
			<path style="fill:#29B3FF;" d="M360.556,182.32c0,0.52-0.421,0.941-0.941,0.941c-0.52,0-0.941-0.421-0.941-0.941
				c0-0.52,0.421-0.941,0.941-0.941C360.135,181.379,360.556,181.801,360.556,182.32z"/>
			<path style="fill:#29B3FF;" d="M357.008,182.466c0.09,0.512-0.251,1-0.763,1.09c-0.512,0.09-1-0.251-1.09-0.763
				c-0.09-0.512,0.251-1,0.763-1.09C356.43,181.612,356.918,181.954,357.008,182.466z"/>
			<path style="fill:#29B3FF;" d="M353.539,183.226c0.178,0.488-0.074,1.028-0.562,1.206c-0.488,0.178-1.028-0.074-1.206-0.562
				c-0.178-0.488,0.074-1.028,0.562-1.206C352.822,182.485,353.362,182.737,353.539,183.226z"/>
			<path style="fill:#29B3FF;" d="M350.255,184.576c0.26,0.45,0.106,1.026-0.344,1.285c-0.45,0.26-1.026,0.106-1.285-0.344
				c-0.26-0.45-0.106-1.026,0.344-1.285C349.42,183.972,349.995,184.126,350.255,184.576z"/>
			<path style="fill:#29B3FF;" d="M347.255,186.476c0.334,0.398,0.282,0.992-0.116,1.326c-0.398,0.334-0.992,0.282-1.326-0.116
				c-0.334-0.398-0.282-0.992,0.116-1.326C346.328,186.026,346.921,186.078,347.255,186.476z"/>
			<path style="fill:#29B3FF;" d="M344.631,188.868c0.398,0.334,0.45,0.928,0.116,1.326c-0.334,0.398-0.928,0.45-1.326,0.116
				c-0.398-0.334-0.45-0.928-0.116-1.326C343.639,188.586,344.233,188.535,344.631,188.868z"/>
			<path style="fill:#29B3FF;" d="M342.462,191.68c0.45,0.26,0.604,0.835,0.344,1.286c-0.26,0.45-0.835,0.604-1.285,0.344
				c-0.45-0.26-0.604-0.835-0.344-1.285C341.436,191.574,342.012,191.42,342.462,191.68z"/>
			<path style="fill:#29B3FF;" d="M340.814,194.826c0.488,0.178,0.74,0.718,0.562,1.206c-0.178,0.488-0.718,0.74-1.206,0.562
				c-0.488-0.178-0.74-0.718-0.562-1.206C339.786,194.9,340.326,194.648,340.814,194.826z"/>
			<path style="fill:#29B3FF;" d="M339.738,198.21c0.512,0.09,0.854,0.578,0.763,1.09c-0.09,0.512-0.578,0.854-1.09,0.763
				c-0.512-0.09-0.854-0.578-0.763-1.09C338.738,198.461,339.226,198.119,339.738,198.21z"/>
			<circle style="fill:#29B3FF;" cx="339.265" cy="202.67" r="0.941"/>
			<path style="fill:#29B3FF;" d="M339.411,205.277c0.512-0.09,1,0.252,1.09,0.763c0.09,0.512-0.251,1-0.763,1.09
				c-0.512,0.09-1-0.251-1.09-0.763C338.557,205.855,338.899,205.367,339.411,205.277z"/>
			<path style="fill:#29B3FF;" d="M340.171,208.746c0.488-0.178,1.028,0.074,1.206,0.562c0.178,0.488-0.074,1.028-0.562,1.206
				c-0.488,0.178-1.028-0.074-1.206-0.562C339.431,209.464,339.682,208.923,340.171,208.746z"/>
			<path style="fill:#29B3FF;" d="M341.521,212.03c0.45-0.26,1.026-0.106,1.285,0.344c0.26,0.45,0.106,1.026-0.344,1.285
				c-0.45,0.26-1.026,0.106-1.285-0.344C340.917,212.865,341.071,212.29,341.521,212.03z"/>
			<path style="fill:#29B3FF;" d="M343.421,215.03c0.398-0.334,0.992-0.282,1.326,0.116c0.334,0.398,0.282,0.992-0.116,1.326
				c-0.398,0.334-0.992,0.282-1.326-0.116C342.971,215.957,343.023,215.364,343.421,215.03z"/>
			<path style="fill:#29B3FF;" d="M345.814,217.654c0.334-0.398,0.928-0.45,1.326-0.116c0.398,0.334,0.45,0.928,0.116,1.326
				c-0.334,0.398-0.928,0.45-1.326,0.116C345.531,218.646,345.479,218.052,345.814,217.654z"/>
			<path style="fill:#29B3FF;" d="M348.625,219.823c0.26-0.45,0.835-0.604,1.285-0.344c0.45,0.26,0.604,0.835,0.344,1.285
				c-0.26,0.45-0.835,0.604-1.285,0.344C348.52,220.848,348.365,220.273,348.625,219.823z"/>
			<path style="fill:#29B3FF;" d="M351.771,221.471c0.178-0.488,0.718-0.74,1.206-0.562c0.488,0.178,0.74,0.718,0.562,1.206
				c-0.178,0.488-0.718,0.74-1.206,0.562C351.845,222.499,351.593,221.959,351.771,221.471z"/>
			<path style="fill:#29B3FF;" d="M355.155,222.547c0.09-0.512,0.578-0.854,1.09-0.763c0.512,0.09,0.854,0.578,0.763,1.09
				c-0.09,0.512-0.578,0.854-1.09,0.763C355.406,223.547,355.064,223.059,355.155,222.547z"/>
			<circle style="fill:#29B3FF;" cx="359.615" cy="223.02" r="0.941"/>
			<path style="fill:#29B3FF;" d="M362.222,222.874c-0.09-0.512,0.252-1,0.763-1.09c0.512-0.09,1,0.251,1.09,0.763
				c0.09,0.512-0.251,1-0.763,1.09C362.8,223.728,362.312,223.386,362.222,222.874z"/>
			<path style="fill:#29B3FF;" d="M365.691,222.114c-0.178-0.488,0.074-1.028,0.562-1.206c0.488-0.178,1.028,0.074,1.206,0.562
				c0.178,0.488-0.074,1.028-0.562,1.206C366.409,222.855,365.869,222.603,365.691,222.114z"/>
			<path style="fill:#29B3FF;" d="M364.075,182.793c-0.09,0.512-0.578,0.854-1.09,0.763c-0.512-0.09-0.853-0.578-0.763-1.09
				c0.09-0.512,0.578-0.854,1.09-0.763C363.824,181.793,364.166,182.281,364.075,182.793z"/>
		</g>
		<g>
			<circle style="fill:#29B3FF;" cx="630.774" cy="60.91" r="0.941"/>
			<path style="fill:#29B3FF;" d="M630.628,58.303c-0.512,0.09-1-0.251-1.09-0.763c-0.09-0.512,0.251-1,0.763-1.09
				c0.512-0.09,1,0.251,1.09,0.763C631.482,57.724,631.14,58.213,630.628,58.303z"/>
			<path style="fill:#29B3FF;" d="M629.869,54.834c-0.488,0.178-1.028-0.074-1.206-0.562c-0.178-0.488,0.074-1.028,0.562-1.206
				c0.488-0.178,1.028,0.074,1.206,0.562C630.609,54.116,630.357,54.656,629.869,54.834z"/>
			<path style="fill:#29B3FF;" d="M628.518,51.55c-0.45,0.26-1.026,0.106-1.285-0.344c-0.26-0.45-0.106-1.026,0.344-1.285
				c0.45-0.26,1.026-0.106,1.285,0.344C629.123,50.715,628.968,51.29,628.518,51.55z"/>
			<path style="fill:#29B3FF;" d="M626.618,48.55c-0.398,0.334-0.992,0.282-1.326-0.116c-0.334-0.398-0.282-0.992,0.116-1.326
				c0.398-0.334,0.992-0.282,1.326,0.116C627.068,47.622,627.016,48.216,626.618,48.55z"/>
			<path style="fill:#29B3FF;" d="M624.226,45.926c-0.334,0.398-0.928,0.45-1.326,0.116c-0.398-0.334-0.45-0.928-0.116-1.326
				c0.334-0.398,0.928-0.45,1.326-0.116C624.508,44.934,624.56,45.528,624.226,45.926z"/>
			<path style="fill:#29B3FF;" d="M621.414,43.757c-0.26,0.45-0.835,0.604-1.285,0.344c-0.45-0.26-0.604-0.835-0.344-1.285
				c0.26-0.45,0.835-0.604,1.286-0.344C621.52,42.731,621.674,43.307,621.414,43.757z"/>
			<path style="fill:#29B3FF;" d="M618.269,42.109c-0.178,0.488-0.718,0.74-1.206,0.562c-0.488-0.178-0.74-0.718-0.563-1.206
				c0.178-0.488,0.718-0.74,1.206-0.562C618.195,41.081,618.446,41.621,618.269,42.109z"/>
			<path style="fill:#29B3FF;" d="M614.885,41.033c-0.09,0.512-0.578,0.854-1.09,0.763c-0.512-0.09-0.854-0.578-0.763-1.09
				c0.09-0.512,0.578-0.854,1.09-0.763C614.633,40.033,614.975,40.521,614.885,41.033z"/>
			<circle style="fill:#29B3FF;" cx="610.424" cy="40.56" r="0.941"/>
			<path style="fill:#29B3FF;" d="M607.817,40.706c0.09,0.512-0.252,1-0.763,1.09c-0.512,0.09-1-0.251-1.09-0.763
				c-0.09-0.512,0.251-1,0.763-1.09C607.239,39.852,607.727,40.194,607.817,40.706z"/>
			<path style="fill:#29B3FF;" d="M604.349,41.465c0.178,0.488-0.074,1.028-0.562,1.206c-0.488,0.178-1.028-0.074-1.206-0.562
				c-0.178-0.488,0.074-1.028,0.563-1.206C603.631,40.725,604.171,40.977,604.349,41.465z"/>
			<path style="fill:#29B3FF;" d="M601.064,42.816c0.26,0.45,0.106,1.026-0.344,1.285c-0.45,0.26-1.026,0.106-1.285-0.344
				c-0.26-0.45-0.106-1.026,0.344-1.285C600.229,42.212,600.805,42.366,601.064,42.816z"/>
			<path style="fill:#29B3FF;" d="M598.065,44.716c0.334,0.398,0.282,0.992-0.116,1.326c-0.398,0.334-0.992,0.282-1.326-0.116
				c-0.334-0.398-0.282-0.992,0.116-1.326C597.137,44.266,597.731,44.318,598.065,44.716z"/>
			<path style="fill:#29B3FF;" d="M595.44,47.108c0.398,0.334,0.45,0.928,0.116,1.326c-0.334,0.398-0.928,0.45-1.326,0.116
				c-0.398-0.334-0.45-0.928-0.116-1.326C594.449,46.826,595.042,46.774,595.44,47.108z"/>
			<path style="fill:#29B3FF;" d="M593.271,49.92c0.45,0.26,0.604,0.835,0.344,1.285c-0.26,0.45-0.835,0.604-1.285,0.344
				c-0.45-0.26-0.604-0.835-0.344-1.285C592.246,49.814,592.821,49.66,593.271,49.92z"/>
			<path style="fill:#29B3FF;" d="M591.624,53.065c0.488,0.178,0.74,0.718,0.562,1.206c-0.178,0.488-0.718,0.74-1.206,0.562
				c-0.488-0.178-0.74-0.718-0.562-1.206C590.595,53.14,591.135,52.888,591.624,53.065z"/>
			<path style="fill:#29B3FF;" d="M590.547,56.449c0.512,0.09,0.853,0.578,0.763,1.09c-0.09,0.512-0.578,0.854-1.09,0.763
				c-0.512-0.09-0.854-0.578-0.763-1.09C589.547,56.701,590.035,56.359,590.547,56.449z"/>
			<circle style="fill:#29B3FF;" cx="590.075" cy="60.91" r="0.941"/>
			<path style="fill:#29B3FF;" d="M590.22,63.517c0.512-0.09,1,0.251,1.09,0.763c0.09,0.512-0.252,1-0.763,1.09
				c-0.512,0.09-1-0.252-1.09-0.763C589.367,64.095,589.708,63.607,590.22,63.517z"/>
			<path style="fill:#29B3FF;" d="M590.98,66.986c0.488-0.178,1.028,0.074,1.206,0.562c0.178,0.488-0.074,1.028-0.562,1.206
				c-0.488,0.178-1.028-0.074-1.206-0.562C590.24,67.703,590.492,67.163,590.98,66.986z"/>
			<path style="fill:#29B3FF;" d="M630.302,65.37c-0.512-0.09-0.853-0.578-0.763-1.09c0.09-0.512,0.578-0.853,1.09-0.763
				c0.512,0.09,0.854,0.578,0.763,1.09C631.302,65.119,630.813,65.461,630.302,65.37z"/>
		</g>
		<g>
			<path d="M304.477,353.459c0-0.52,0.421-0.941,0.941-0.941c0.52,0,0.941,0.421,0.941,0.941c0,0.52-0.421,0.941-0.941,0.941
				C304.898,354.4,304.477,353.979,304.477,353.459z"/>
			<path d="M308.025,353.314c-0.09-0.512,0.252-1,0.763-1.09c0.512-0.09,1,0.251,1.09,0.763c0.09,0.512-0.251,1-0.763,1.09
				C308.603,354.167,308.115,353.825,308.025,353.314z"/>
			<path d="M311.494,352.554c-0.178-0.488,0.074-1.028,0.562-1.206c0.488-0.178,1.028,0.074,1.206,0.562
				c0.178,0.488-0.074,1.028-0.562,1.206C312.212,353.294,311.672,353.042,311.494,352.554z"/>
			<path d="M314.778,351.203c-0.26-0.45-0.106-1.026,0.344-1.285c0.45-0.26,1.026-0.106,1.285,0.345
				c0.26,0.45,0.106,1.025-0.344,1.285C315.613,351.808,315.038,351.654,314.778,351.203z"/>
			<path d="M317.778,349.303c-0.334-0.398-0.282-0.992,0.116-1.326c0.398-0.334,0.992-0.282,1.326,0.116
				c0.334,0.398,0.282,0.992-0.116,1.326C318.705,349.753,318.112,349.701,317.778,349.303z"/>
			<path d="M320.402,346.911c-0.398-0.334-0.45-0.928-0.116-1.326c0.334-0.398,0.928-0.45,1.326-0.116
				c0.398,0.334,0.45,0.927,0.116,1.326C321.394,347.193,320.8,347.245,320.402,346.911z"/>
			<path d="M322.571,344.099c-0.45-0.26-0.604-0.835-0.344-1.285c0.26-0.45,0.835-0.604,1.285-0.344
				c0.45,0.26,0.604,0.835,0.344,1.285C323.597,344.205,323.021,344.359,322.571,344.099z"/>
			<path d="M324.219,340.954c-0.488-0.178-0.74-0.718-0.562-1.206c0.178-0.488,0.718-0.74,1.206-0.562
				c0.488,0.178,0.74,0.718,0.562,1.206C325.247,340.88,324.707,341.132,324.219,340.954z"/>
			<path d="M325.295,337.57c-0.512-0.09-0.853-0.578-0.763-1.09c0.09-0.512,0.578-0.854,1.09-0.763
				c0.512,0.09,0.854,0.578,0.763,1.09C326.295,337.318,325.807,337.66,325.295,337.57z"/>
			<circle cx="325.768" cy="333.109" r="0.941"/>
			<path d="M325.622,330.503c-0.512,0.09-1-0.251-1.09-0.763c-0.09-0.512,0.251-1,0.763-1.09c0.512-0.09,1,0.251,1.09,0.763
				C326.476,329.924,326.134,330.412,325.622,330.503z"/>
			<path d="M324.862,327.034c-0.488,0.178-1.028-0.074-1.206-0.562c-0.178-0.488,0.074-1.028,0.562-1.206
				c0.488-0.178,1.028,0.074,1.206,0.562C325.603,326.316,325.351,326.856,324.862,327.034z"/>
			<path d="M323.512,323.75c-0.45,0.26-1.026,0.106-1.285-0.344c-0.26-0.45-0.106-1.026,0.344-1.285
				c0.45-0.26,1.026-0.106,1.285,0.345C324.116,322.914,323.962,323.49,323.512,323.75z"/>
			<path d="M321.612,320.75c-0.398,0.334-0.992,0.282-1.326-0.116c-0.334-0.398-0.282-0.992,0.116-1.326
				c0.398-0.334,0.992-0.282,1.326,0.116C322.062,319.822,322.01,320.416,321.612,320.75z"/>
			<path d="M319.22,318.125c-0.334,0.398-0.928,0.45-1.326,0.116c-0.398-0.334-0.45-0.928-0.116-1.326
				c0.334-0.398,0.928-0.45,1.326-0.116C319.502,317.134,319.554,317.727,319.22,318.125z"/>
			<path d="M316.408,315.957c-0.26,0.45-0.835,0.604-1.285,0.344c-0.45-0.26-0.604-0.835-0.344-1.285
				c0.26-0.45,0.835-0.604,1.285-0.344C316.513,314.931,316.668,315.506,316.408,315.957z"/>
			<path d="M313.262,314.309c-0.178,0.488-0.718,0.74-1.206,0.562c-0.488-0.178-0.74-0.718-0.562-1.206
				c0.178-0.488,0.718-0.74,1.206-0.562C313.188,313.28,313.44,313.82,313.262,314.309z"/>
			<path d="M309.879,313.232c-0.09,0.512-0.578,0.854-1.09,0.763c-0.512-0.09-0.854-0.578-0.763-1.09
				c0.09-0.512,0.578-0.853,1.09-0.763C309.627,312.232,309.969,312.72,309.879,313.232z"/>
			<path d="M306.359,312.76c0,0.52-0.421,0.941-0.941,0.941c-0.52,0-0.941-0.421-0.941-0.941c0-0.52,0.421-0.941,0.941-0.941
				C305.938,311.819,306.359,312.24,306.359,312.76z"/>
			<path d="M302.811,312.905c0.09,0.512-0.251,1-0.763,1.09c-0.512,0.09-1-0.252-1.09-0.763c-0.09-0.512,0.251-1,0.763-1.09
				C302.233,312.052,302.721,312.394,302.811,312.905z"/>
			<path d="M299.342,313.665c0.178,0.488-0.074,1.028-0.562,1.206c-0.488,0.178-1.028-0.074-1.206-0.562
				c-0.178-0.488,0.074-1.028,0.562-1.206C298.625,312.925,299.164,313.177,299.342,313.665z"/>
			<path d="M300.958,352.987c0.09-0.512,0.578-0.853,1.09-0.763c0.512,0.09,0.854,0.578,0.763,1.09
				c-0.09,0.512-0.578,0.854-1.09,0.763C301.209,353.987,300.867,353.499,300.958,352.987z"/>
		</g>
		<g>
			<circle cx="616.738" cy="417.537" r="0.941"/>
			<path d="M619.345,417.392c-0.09-0.512,0.251-1,0.763-1.09c0.512-0.09,1,0.251,1.09,0.763c0.09,0.512-0.252,1-0.763,1.09
				C619.923,418.245,619.435,417.903,619.345,417.392z"/>
			<path d="M622.814,416.632c-0.178-0.488,0.074-1.028,0.562-1.206c0.488-0.178,1.028,0.074,1.206,0.562
				c0.178,0.488-0.074,1.028-0.563,1.206C623.531,417.372,622.991,417.12,622.814,416.632z"/>
			<path d="M626.098,415.281c-0.26-0.45-0.106-1.026,0.345-1.285c0.45-0.26,1.025-0.106,1.285,0.344
				c0.26,0.45,0.106,1.026-0.344,1.285C626.933,415.886,626.358,415.731,626.098,415.281z"/>
			<path d="M629.098,413.381c-0.334-0.398-0.282-0.992,0.116-1.326c0.398-0.334,0.992-0.282,1.326,0.116
				c0.334,0.398,0.282,0.992-0.116,1.326C630.025,413.831,629.432,413.779,629.098,413.381z"/>
			<path d="M631.722,410.989c-0.398-0.334-0.45-0.928-0.116-1.326c0.334-0.398,0.928-0.45,1.326-0.116
				c0.398,0.334,0.45,0.927,0.116,1.326C632.714,411.271,632.12,411.323,631.722,410.989z"/>
			<path d="M633.891,408.177c-0.45-0.26-0.604-0.835-0.344-1.285c0.26-0.45,0.835-0.604,1.285-0.344
				c0.45,0.26,0.604,0.835,0.344,1.285C634.916,408.283,634.341,408.437,633.891,408.177z"/>
			<path d="M635.539,405.032c-0.488-0.178-0.74-0.718-0.562-1.206c0.178-0.488,0.718-0.74,1.206-0.562
				c0.488,0.178,0.74,0.718,0.562,1.206C636.567,404.958,636.027,405.209,635.539,405.032z"/>
			<path d="M636.615,401.648c-0.512-0.09-0.854-0.578-0.763-1.09c0.09-0.512,0.578-0.854,1.09-0.763
				c0.512,0.09,0.854,0.578,0.763,1.09C637.615,401.396,637.127,401.738,636.615,401.648z"/>
			<circle cx="637.088" cy="397.187" r="0.941"/>
			<path d="M636.942,394.58c-0.512,0.09-1-0.252-1.09-0.763c-0.09-0.512,0.251-1,0.763-1.09c0.512-0.09,1,0.251,1.09,0.763
				C637.795,394.002,637.454,394.49,636.942,394.58z"/>
			<path d="M636.182,391.112c-0.488,0.178-1.028-0.074-1.206-0.562c-0.178-0.488,0.074-1.028,0.562-1.206
				c0.488-0.178,1.028,0.074,1.206,0.562C636.922,390.394,636.671,390.934,636.182,391.112z"/>
			<path d="M634.832,387.827c-0.45,0.26-1.026,0.106-1.285-0.344c-0.26-0.45-0.106-1.026,0.344-1.285
				c0.45-0.26,1.026-0.106,1.285,0.344C635.436,386.992,635.282,387.568,634.832,387.827z"/>
			<path d="M632.932,384.828c-0.398,0.334-0.992,0.282-1.326-0.116c-0.334-0.398-0.282-0.992,0.116-1.326
				c0.398-0.334,0.992-0.282,1.326,0.116C633.382,383.9,633.33,384.494,632.932,384.828z"/>
			<path d="M630.539,382.203c-0.334,0.398-0.928,0.45-1.326,0.116c-0.398-0.334-0.45-0.928-0.116-1.326
				c0.334-0.398,0.928-0.45,1.326-0.116C630.821,381.212,630.873,381.805,630.539,382.203z"/>
			<path d="M627.728,380.034c-0.26,0.45-0.835,0.604-1.285,0.344c-0.45-0.26-0.604-0.835-0.345-1.285
				c0.26-0.45,0.835-0.604,1.286-0.344C627.833,379.009,627.987,379.584,627.728,380.034z"/>
			<path d="M624.582,378.387c-0.178,0.488-0.718,0.74-1.206,0.562c-0.488-0.178-0.74-0.718-0.562-1.206
				c0.178-0.488,0.718-0.74,1.206-0.562C624.508,377.358,624.76,377.898,624.582,378.387z"/>
			<path d="M621.198,377.31c-0.09,0.512-0.578,0.854-1.09,0.763c-0.512-0.09-0.854-0.578-0.763-1.09
				c0.09-0.512,0.578-0.854,1.09-0.763C620.947,376.31,621.289,376.798,621.198,377.31z"/>
			<circle cx="616.738" cy="376.838" r="0.941"/>
			<path d="M614.131,376.983c0.09,0.512-0.251,1-0.763,1.09c-0.512,0.09-1-0.251-1.09-0.763c-0.09-0.512,0.251-1,0.763-1.09
				C613.552,376.13,614.041,376.471,614.131,376.983z"/>
			<path d="M610.662,377.743c0.178,0.488-0.074,1.028-0.563,1.206c-0.488,0.178-1.028-0.074-1.206-0.562
				c-0.178-0.488,0.074-1.028,0.562-1.206C609.944,377.003,610.484,377.255,610.662,377.743z"/>
			<path d="M612.277,417.065c0.09-0.512,0.578-0.854,1.09-0.763c0.512,0.09,0.854,0.578,0.763,1.09
				c-0.09,0.512-0.578,0.853-1.09,0.763C612.529,418.065,612.187,417.576,612.277,417.065z"/>
		</g>
		<g>
			<circle cx="128.875" cy="120.101" r="0.941"/>
			<path d="M129.02,122.708c0.512-0.09,1,0.252,1.09,0.763c0.09,0.512-0.252,1-0.763,1.09c-0.512,0.09-1-0.251-1.09-0.763
				C128.167,123.287,128.509,122.799,129.02,122.708z"/>
			<path d="M129.78,126.177c0.488-0.178,1.028,0.074,1.206,0.562c0.178,0.488-0.074,1.028-0.562,1.206
				c-0.488,0.178-1.028-0.074-1.206-0.562C129.04,126.895,129.292,126.355,129.78,126.177z"/>
			<path d="M131.13,129.461c0.45-0.26,1.026-0.106,1.285,0.344c0.26,0.45,0.106,1.026-0.344,1.286
				c-0.45,0.26-1.026,0.106-1.286-0.344C130.526,130.297,130.68,129.721,131.13,129.461z"/>
			<path d="M133.031,132.461c0.398-0.334,0.992-0.282,1.326,0.116c0.334,0.398,0.282,0.992-0.116,1.326
				c-0.398,0.334-0.992,0.282-1.326-0.116C132.581,133.389,132.633,132.795,133.031,132.461z"/>
			<path d="M135.423,135.085c0.334-0.398,0.928-0.45,1.326-0.116c0.398,0.334,0.45,0.928,0.116,1.326
				c-0.334,0.398-0.928,0.45-1.326,0.116C135.141,136.077,135.089,135.483,135.423,135.085z"/>
			<path d="M138.235,137.254c0.26-0.45,0.835-0.604,1.285-0.344c0.45,0.26,0.604,0.835,0.344,1.285
				c-0.26,0.45-0.835,0.604-1.286,0.344C138.129,138.28,137.975,137.704,138.235,137.254z"/>
			<path d="M141.38,138.902c0.178-0.488,0.718-0.74,1.206-0.562c0.488,0.178,0.74,0.718,0.562,1.206
				c-0.178,0.488-0.718,0.74-1.206,0.562C141.454,139.93,141.202,139.39,141.38,138.902z"/>
			<path d="M144.764,139.979c0.09-0.512,0.578-0.854,1.09-0.763c0.512,0.09,0.854,0.578,0.763,1.09
				c-0.09,0.512-0.578,0.854-1.09,0.763C145.016,140.978,144.674,140.49,144.764,139.979z"/>
			<circle cx="149.224" cy="140.451" r="0.941"/>
			<path d="M151.831,140.305c-0.09-0.512,0.251-1,0.763-1.09c0.512-0.09,1,0.251,1.09,0.763c0.09,0.512-0.251,1-0.763,1.09
				C152.41,141.159,151.922,140.817,151.831,140.305z"/>
			<path d="M155.3,139.546c-0.178-0.488,0.074-1.028,0.562-1.206c0.488-0.178,1.028,0.074,1.206,0.562
				c0.178,0.488-0.074,1.028-0.562,1.206C156.018,140.286,155.478,140.034,155.3,139.546z"/>
			<path d="M158.584,138.195c-0.26-0.45-0.106-1.026,0.344-1.285c0.45-0.26,1.026-0.106,1.285,0.344
				c0.26,0.45,0.106,1.026-0.344,1.285C159.42,138.8,158.844,138.645,158.584,138.195z"/>
			<path d="M161.584,136.295c-0.334-0.398-0.282-0.992,0.116-1.326c0.398-0.334,0.992-0.282,1.326,0.116
				c0.334,0.398,0.282,0.992-0.116,1.326C162.512,136.745,161.918,136.693,161.584,136.295z"/>
			<path d="M164.208,133.903c-0.398-0.334-0.45-0.928-0.116-1.326c0.334-0.398,0.928-0.45,1.326-0.116
				c0.398,0.334,0.45,0.928,0.116,1.326C165.2,134.185,164.607,134.237,164.208,133.903z"/>
			<path d="M166.377,131.091c-0.45-0.26-0.604-0.835-0.344-1.286c0.26-0.45,0.835-0.604,1.285-0.344
				c0.45,0.26,0.604,0.835,0.344,1.285C167.403,131.197,166.827,131.351,166.377,131.091z"/>
			<path d="M168.025,127.946c-0.488-0.178-0.74-0.718-0.562-1.206c0.178-0.488,0.718-0.74,1.206-0.562
				c0.488,0.178,0.74,0.718,0.562,1.206C169.053,127.872,168.514,128.123,168.025,127.946z"/>
			<path d="M169.102,124.562c-0.512-0.09-0.854-0.578-0.763-1.09c0.09-0.512,0.578-0.854,1.09-0.763
				c0.512,0.09,0.854,0.578,0.763,1.09C170.102,124.31,169.613,124.652,169.102,124.562z"/>
			<circle cx="169.574" cy="120.101" r="0.941"/>
			<path d="M169.428,117.494c-0.512,0.09-1-0.252-1.09-0.763c-0.09-0.512,0.252-1,0.763-1.09c0.512-0.09,1,0.252,1.09,0.763
				C170.282,116.916,169.94,117.404,169.428,117.494z"/>
			<path d="M168.669,114.025c-0.488,0.178-1.028-0.074-1.206-0.562c-0.178-0.488,0.074-1.028,0.562-1.206
				c0.488-0.178,1.028,0.074,1.206,0.562C169.409,113.308,169.157,113.848,168.669,114.025z"/>
			<path d="M129.347,115.641c0.512,0.09,0.854,0.578,0.763,1.09c-0.09,0.512-0.578,0.854-1.09,0.763
				c-0.512-0.09-0.854-0.578-0.763-1.09C128.347,115.892,128.835,115.551,129.347,115.641z"/>
		</g>
		<g>
			<g>
				<circle style="fill:#29B3FF;" cx="581.544" cy="118.21" r="4.045"/>
				<path style="fill:#29B3FF;" d="M591.143,118.21c0,2.111-1.711,3.823-3.823,3.823c-2.111,0-3.823-1.711-3.823-3.823
					c0-2.111,1.712-3.823,3.823-3.823C589.431,114.387,591.143,116.099,591.143,118.21z"/>
				<circle style="fill:#29B3FF;" cx="593.096" cy="118.21" r="3.601"/>
				<path style="fill:#29B3FF;" d="M602.251,118.21c0,1.866-1.513,3.379-3.379,3.379c-1.866,0-3.379-1.513-3.379-3.379
					c0-1.866,1.513-3.379,3.379-3.379C600.738,114.831,602.251,116.344,602.251,118.21z"/>
				<circle style="fill:#29B3FF;" cx="604.648" cy="118.21" r="3.158"/>
				<path style="fill:#29B3FF;" d="M613.36,118.21c0,1.621-1.314,2.936-2.936,2.936c-1.621,0-2.936-1.314-2.936-2.936
					c0-1.621,1.314-2.936,2.936-2.936C612.046,115.274,613.36,116.589,613.36,118.21z"/>
				<circle style="fill:#29B3FF;" cx="616.201" cy="118.21" r="2.714"/>
				<path style="fill:#29B3FF;" d="M624.469,118.21c0,1.377-1.116,2.492-2.492,2.492c-1.377,0-2.492-1.116-2.492-2.492
					c0-1.376,1.116-2.492,2.492-2.492C623.353,115.718,624.469,116.834,624.469,118.21z"/>
				<circle style="fill:#29B3FF;" cx="627.753" cy="118.21" r="2.271"/>
				<path style="fill:#29B3FF;" d="M635.578,118.21c0,1.132-0.917,2.049-2.049,2.049c-1.131,0-2.049-0.917-2.049-2.049
					c0-1.132,0.917-2.049,2.049-2.049C634.661,116.161,635.578,117.079,635.578,118.21z"/>
				<path style="fill:#29B3FF;" d="M641.132,118.21c0,1.009-0.818,1.827-1.827,1.827c-1.009,0-1.827-0.818-1.827-1.827
					c0-1.009,0.818-1.827,1.827-1.827C640.314,116.383,641.132,117.201,641.132,118.21z"/>
				<path style="fill:#29B3FF;" d="M646.687,118.21c0,0.887-0.719,1.605-1.605,1.605s-1.605-0.719-1.605-1.605
					c0-0.887,0.719-1.605,1.605-1.605S646.687,117.324,646.687,118.21z"/>
				<circle style="fill:#29B3FF;" cx="650.857" cy="118.21" r="1.384"/>
				<path style="fill:#29B3FF;" d="M657.795,118.21c0,0.642-0.52,1.162-1.162,1.162c-0.642,0-1.162-0.52-1.162-1.162
					c0-0.642,0.52-1.162,1.162-1.162C657.275,117.048,657.795,117.569,657.795,118.21z"/>
				<circle style="fill:#29B3FF;" cx="662.41" cy="118.21" r="0.94"/>
				<path style="fill:#29B3FF;" d="M668.904,118.21c0,0.397-0.322,0.718-0.718,0.718c-0.397,0-0.718-0.322-0.718-0.718
					c0-0.397,0.322-0.718,0.718-0.718C668.583,117.492,668.904,117.813,668.904,118.21z"/>
			</g>
			<g>
				<circle style="fill:#29B3FF;" cx="581.544" cy="125.856" r="4.045"/>
				<path style="fill:#29B3FF;" d="M591.143,125.856c0,2.111-1.711,3.823-3.823,3.823c-2.111,0-3.823-1.712-3.823-3.823
					c0-2.111,1.712-3.823,3.823-3.823C589.431,122.033,591.143,123.745,591.143,125.856z"/>
				<circle style="fill:#29B3FF;" cx="593.096" cy="125.856" r="3.601"/>
				<path style="fill:#29B3FF;" d="M602.251,125.856c0,1.866-1.513,3.379-3.379,3.379c-1.866,0-3.379-1.513-3.379-3.379
					c0-1.866,1.513-3.379,3.379-3.379C600.738,122.477,602.251,123.99,602.251,125.856z"/>
				<circle style="fill:#29B3FF;" cx="604.648" cy="125.856" r="3.158"/>
				<path style="fill:#29B3FF;" d="M613.36,125.856c0,1.621-1.314,2.936-2.936,2.936c-1.621,0-2.936-1.314-2.936-2.936
					c0-1.622,1.314-2.936,2.936-2.936C612.046,122.92,613.36,124.234,613.36,125.856z"/>
				<circle style="fill:#29B3FF;" cx="616.201" cy="125.856" r="2.714"/>
				<path style="fill:#29B3FF;" d="M624.469,125.856c0,1.376-1.116,2.492-2.492,2.492c-1.377,0-2.492-1.116-2.492-2.492
					c0-1.377,1.116-2.492,2.492-2.492C623.353,123.364,624.469,124.479,624.469,125.856z"/>
				<circle style="fill:#29B3FF;" cx="627.753" cy="125.856" r="2.271"/>
				<path style="fill:#29B3FF;" d="M635.578,125.856c0,1.132-0.917,2.049-2.049,2.049c-1.131,0-2.049-0.917-2.049-2.049
					c0-1.132,0.917-2.049,2.049-2.049C634.661,123.807,635.578,124.724,635.578,125.856z"/>
				<path style="fill:#29B3FF;" d="M641.132,125.856c0,1.009-0.818,1.827-1.827,1.827c-1.009,0-1.827-0.818-1.827-1.827
					c0-1.009,0.818-1.827,1.827-1.827C640.314,124.029,641.132,124.847,641.132,125.856z"/>
				<path style="fill:#29B3FF;" d="M646.687,125.856c0,0.887-0.719,1.605-1.605,1.605s-1.605-0.719-1.605-1.605
					c0-0.887,0.719-1.605,1.605-1.605S646.687,124.969,646.687,125.856z"/>
				<circle style="fill:#29B3FF;" cx="650.857" cy="125.856" r="1.384"/>
				<path style="fill:#29B3FF;" d="M657.795,125.856c0,0.642-0.52,1.162-1.162,1.162c-0.642,0-1.162-0.52-1.162-1.162
					c0-0.642,0.52-1.162,1.162-1.162C657.275,124.694,657.795,125.214,657.795,125.856z"/>
				<path style="fill:#29B3FF;" d="M663.35,125.856c0,0.519-0.421,0.94-0.94,0.94c-0.519,0-0.94-0.421-0.94-0.94
					c0-0.519,0.421-0.94,0.94-0.94C662.929,124.916,663.35,125.337,663.35,125.856z"/>
				<path style="fill:#29B3FF;" d="M668.904,125.856c0,0.397-0.322,0.718-0.718,0.718c-0.397,0-0.718-0.322-0.718-0.718
					c0-0.397,0.322-0.718,0.718-0.718C668.583,125.138,668.904,125.459,668.904,125.856z"/>
			</g>
			<g>
				<circle style="fill:#29B3FF;" cx="581.544" cy="133.502" r="4.045"/>
				<path style="fill:#29B3FF;" d="M591.143,133.502c0,2.111-1.711,3.823-3.823,3.823c-2.111,0-3.823-1.711-3.823-3.823
					c0-2.111,1.712-3.823,3.823-3.823C589.431,129.679,591.143,131.39,591.143,133.502z"/>
				<circle style="fill:#29B3FF;" cx="593.096" cy="133.502" r="3.601"/>
				<path style="fill:#29B3FF;" d="M602.251,133.502c0,1.866-1.513,3.379-3.379,3.379c-1.866,0-3.379-1.513-3.379-3.379
					c0-1.866,1.513-3.379,3.379-3.379C600.738,130.122,602.251,131.635,602.251,133.502z"/>
				<circle style="fill:#29B3FF;" cx="604.648" cy="133.502" r="3.158"/>
				<path style="fill:#29B3FF;" d="M613.36,133.502c0,1.621-1.314,2.936-2.936,2.936c-1.621,0-2.936-1.314-2.936-2.936
					c0-1.621,1.314-2.936,2.936-2.936C612.046,130.566,613.36,131.88,613.36,133.502z"/>
				<circle style="fill:#29B3FF;" cx="616.201" cy="133.502" r="2.714"/>
				<path style="fill:#29B3FF;" d="M624.469,133.502c0,1.376-1.116,2.492-2.492,2.492c-1.377,0-2.492-1.116-2.492-2.492
					c0-1.376,1.116-2.492,2.492-2.492C623.353,131.009,624.469,132.125,624.469,133.502z"/>
				<circle style="fill:#29B3FF;" cx="627.753" cy="133.502" r="2.271"/>
				<path style="fill:#29B3FF;" d="M635.578,133.502c0,1.132-0.917,2.049-2.049,2.049c-1.131,0-2.049-0.917-2.049-2.049
					c0-1.132,0.917-2.049,2.049-2.049C634.661,131.453,635.578,132.37,635.578,133.502z"/>
				<path style="fill:#29B3FF;" d="M641.132,133.502c0,1.009-0.818,1.827-1.827,1.827c-1.009,0-1.827-0.818-1.827-1.827
					c0-1.009,0.818-1.827,1.827-1.827C640.314,131.674,641.132,132.493,641.132,133.502z"/>
				<path style="fill:#29B3FF;" d="M646.687,133.502c0,0.887-0.719,1.605-1.605,1.605s-1.605-0.719-1.605-1.605
					c0-0.887,0.719-1.605,1.605-1.605S646.687,132.615,646.687,133.502z"/>
				<path style="fill:#29B3FF;" d="M652.241,133.502c0,0.764-0.619,1.384-1.384,1.384c-0.764,0-1.384-0.62-1.384-1.384
					c0-0.764,0.62-1.384,1.384-1.384C651.622,132.118,652.241,132.738,652.241,133.502z"/>
				<path style="fill:#29B3FF;" d="M657.795,133.502c0,0.642-0.52,1.162-1.162,1.162c-0.642,0-1.162-0.52-1.162-1.162
					c0-0.642,0.52-1.162,1.162-1.162C657.275,132.34,657.795,132.86,657.795,133.502z"/>
				<path style="fill:#29B3FF;" d="M663.35,133.502c0,0.519-0.421,0.94-0.94,0.94c-0.519,0-0.94-0.421-0.94-0.94
					c0-0.519,0.421-0.94,0.94-0.94C662.929,132.561,663.35,132.982,663.35,133.502z"/>
				<path style="fill:#29B3FF;" d="M668.904,133.502c0,0.397-0.322,0.718-0.718,0.718c-0.397,0-0.718-0.322-0.718-0.718
					c0-0.397,0.322-0.718,0.718-0.718C668.583,132.783,668.904,133.105,668.904,133.502z"/>
			</g>
			<g>
				<circle style="fill:#29B3FF;" cx="581.544" cy="141.147" r="4.045"/>
				<path style="fill:#29B3FF;" d="M591.143,141.147c0,2.111-1.711,3.823-3.823,3.823c-2.111,0-3.823-1.712-3.823-3.823
					s1.712-3.823,3.823-3.823C589.431,137.324,591.143,139.036,591.143,141.147z"/>
				<circle style="fill:#29B3FF;" cx="593.096" cy="141.147" r="3.601"/>
				<path style="fill:#29B3FF;" d="M602.251,141.147c0,1.866-1.513,3.379-3.379,3.379c-1.866,0-3.379-1.513-3.379-3.379
					c0-1.866,1.513-3.379,3.379-3.379C600.738,137.768,602.251,139.281,602.251,141.147z"/>
				<circle style="fill:#29B3FF;" cx="604.648" cy="141.147" r="3.158"/>
				<path style="fill:#29B3FF;" d="M613.36,141.147c0,1.621-1.314,2.936-2.936,2.936c-1.621,0-2.936-1.314-2.936-2.936
					c0-1.622,1.314-2.936,2.936-2.936C612.046,138.212,613.36,139.526,613.36,141.147z"/>
				<path style="fill:#29B3FF;" d="M618.915,141.147c0,1.499-1.215,2.714-2.714,2.714c-1.499,0-2.714-1.215-2.714-2.714
					c0-1.499,1.215-2.714,2.714-2.714C617.699,138.433,618.915,139.648,618.915,141.147z"/>
				<path style="fill:#29B3FF;" d="M624.469,141.147c0,1.376-1.116,2.492-2.492,2.492c-1.377,0-2.492-1.116-2.492-2.492
					c0-1.376,1.116-2.492,2.492-2.492C623.353,138.655,624.469,139.771,624.469,141.147z"/>
				<path style="fill:#29B3FF;" d="M630.023,141.147c0,1.254-1.017,2.271-2.271,2.271c-1.254,0-2.271-1.017-2.271-2.271
					c0-1.254,1.017-2.271,2.271-2.271C629.007,138.877,630.023,139.893,630.023,141.147z"/>
				<path style="fill:#29B3FF;" d="M635.578,141.147c0,1.132-0.917,2.049-2.049,2.049c-1.131,0-2.049-0.917-2.049-2.049
					c0-1.132,0.917-2.049,2.049-2.049C634.661,139.098,635.578,140.016,635.578,141.147z"/>
				<path style="fill:#29B3FF;" d="M641.132,141.147c0,1.009-0.818,1.827-1.827,1.827c-1.009,0-1.827-0.818-1.827-1.827
					c0-1.009,0.818-1.827,1.827-1.827C640.314,139.32,641.132,140.138,641.132,141.147z"/>
				<path style="fill:#29B3FF;" d="M646.687,141.147c0,0.887-0.719,1.605-1.605,1.605s-1.605-0.719-1.605-1.605
					c0-0.887,0.719-1.605,1.605-1.605S646.687,140.261,646.687,141.147z"/>
				<path style="fill:#29B3FF;" d="M652.241,141.147c0,0.764-0.619,1.384-1.384,1.384c-0.764,0-1.384-0.62-1.384-1.384
					c0-0.764,0.62-1.384,1.384-1.384C651.622,139.764,652.241,140.383,652.241,141.147z"/>
				<path style="fill:#29B3FF;" d="M657.795,141.147c0,0.642-0.52,1.162-1.162,1.162c-0.642,0-1.162-0.52-1.162-1.162
					c0-0.642,0.52-1.162,1.162-1.162C657.275,139.986,657.795,140.506,657.795,141.147z"/>
				<path style="fill:#29B3FF;" d="M663.35,141.147c0,0.519-0.421,0.94-0.94,0.94c-0.519,0-0.94-0.421-0.94-0.94
					c0-0.519,0.421-0.94,0.94-0.94C662.929,140.207,663.35,140.628,663.35,141.147z"/>
				<path style="fill:#29B3FF;" d="M668.904,141.147c0,0.397-0.322,0.718-0.718,0.718c-0.397,0-0.718-0.322-0.718-0.718
					c0-0.397,0.322-0.718,0.718-0.718C668.583,140.429,668.904,140.751,668.904,141.147z"/>
			</g>
			<g>
				<path style="fill:#29B3FF;" d="M585.588,148.793c0,2.234-1.811,4.045-4.045,4.045c-2.234,0-4.045-1.811-4.045-4.045
					c0-2.234,1.811-4.044,4.045-4.044C583.777,144.749,585.588,146.559,585.588,148.793z"/>
				<path style="fill:#29B3FF;" d="M591.143,148.793c0,2.111-1.711,3.823-3.823,3.823c-2.111,0-3.823-1.712-3.823-3.823
					c0-2.111,1.712-3.823,3.823-3.823C589.431,144.97,591.143,146.682,591.143,148.793z"/>
				<path style="fill:#29B3FF;" d="M596.697,148.793c0,1.989-1.612,3.601-3.601,3.601c-1.989,0-3.601-1.612-3.601-3.601
					c0-1.989,1.612-3.601,3.601-3.601C595.085,145.192,596.697,146.804,596.697,148.793z"/>
				<path style="fill:#29B3FF;" d="M602.251,148.793c0,1.866-1.513,3.379-3.379,3.379c-1.866,0-3.379-1.513-3.379-3.379
					c0-1.866,1.513-3.379,3.379-3.379C600.738,145.414,602.251,146.927,602.251,148.793z"/>
				<path style="fill:#29B3FF;" d="M607.806,148.793c0,1.744-1.414,3.158-3.158,3.158s-3.158-1.414-3.158-3.158
					c0-1.744,1.414-3.158,3.158-3.158S607.806,147.049,607.806,148.793z"/>
				<path style="fill:#29B3FF;" d="M613.36,148.793c0,1.622-1.314,2.936-2.936,2.936c-1.621,0-2.936-1.314-2.936-2.936
					c0-1.621,1.314-2.936,2.936-2.936C612.046,145.857,613.36,147.172,613.36,148.793z"/>
				<path style="fill:#29B3FF;" d="M618.915,148.793c0,1.499-1.215,2.714-2.714,2.714c-1.499,0-2.714-1.215-2.714-2.714
					c0-1.499,1.215-2.714,2.714-2.714C617.699,146.079,618.915,147.294,618.915,148.793z"/>
				<path style="fill:#29B3FF;" d="M624.469,148.793c0,1.376-1.116,2.492-2.492,2.492c-1.377,0-2.492-1.116-2.492-2.492
					c0-1.376,1.116-2.492,2.492-2.492C623.353,146.301,624.469,147.417,624.469,148.793z"/>
				<path style="fill:#29B3FF;" d="M630.023,148.793c0,1.254-1.017,2.271-2.271,2.271c-1.254,0-2.271-1.017-2.271-2.271
					c0-1.254,1.017-2.271,2.271-2.271C629.007,146.522,630.023,147.539,630.023,148.793z"/>
				<path style="fill:#29B3FF;" d="M635.578,148.793c0,1.132-0.917,2.049-2.049,2.049c-1.131,0-2.049-0.917-2.049-2.049
					c0-1.132,0.917-2.049,2.049-2.049C634.661,146.744,635.578,147.661,635.578,148.793z"/>
				<path style="fill:#29B3FF;" d="M641.132,148.793c0,1.009-0.818,1.827-1.827,1.827c-1.009,0-1.827-0.818-1.827-1.827
					c0-1.009,0.818-1.827,1.827-1.827C640.314,146.966,641.132,147.784,641.132,148.793z"/>
				<path style="fill:#29B3FF;" d="M646.687,148.793c0,0.887-0.719,1.605-1.605,1.605s-1.605-0.719-1.605-1.605
					c0-0.887,0.719-1.605,1.605-1.605S646.687,147.906,646.687,148.793z"/>
				<path style="fill:#29B3FF;" d="M652.241,148.793c0,0.764-0.619,1.384-1.384,1.384c-0.764,0-1.384-0.619-1.384-1.384
					c0-0.764,0.62-1.384,1.384-1.384C651.622,147.409,652.241,148.029,652.241,148.793z"/>
				<path style="fill:#29B3FF;" d="M657.795,148.793c0,0.642-0.52,1.162-1.162,1.162c-0.642,0-1.162-0.52-1.162-1.162
					c0-0.642,0.52-1.162,1.162-1.162C657.275,147.631,657.795,148.151,657.795,148.793z"/>
				<path style="fill:#29B3FF;" d="M663.35,148.793c0,0.519-0.421,0.94-0.94,0.94c-0.519,0-0.94-0.421-0.94-0.94
					c0-0.519,0.421-0.94,0.94-0.94C662.929,147.853,663.35,148.274,663.35,148.793z"/>
				<path style="fill:#29B3FF;" d="M668.904,148.793c0,0.397-0.322,0.718-0.718,0.718c-0.397,0-0.718-0.322-0.718-0.718
					c0-0.397,0.322-0.718,0.718-0.718C668.583,148.075,668.904,148.396,668.904,148.793z"/>
			</g>
			<g>
				<circle style="fill:#29B3FF;" cx="581.544" cy="156.439" r="4.045"/>
				<path style="fill:#29B3FF;" d="M591.143,156.439c0,2.111-1.711,3.823-3.823,3.823c-2.111,0-3.823-1.712-3.823-3.823
					c0-2.111,1.712-3.823,3.823-3.823C589.431,152.616,591.143,154.327,591.143,156.439z"/>
				<circle style="fill:#29B3FF;" cx="593.096" cy="156.439" r="3.601"/>
				<path style="fill:#29B3FF;" d="M602.251,156.439c0,1.866-1.513,3.379-3.379,3.379c-1.866,0-3.379-1.513-3.379-3.379
					c0-1.866,1.513-3.379,3.379-3.379C600.738,153.059,602.251,154.572,602.251,156.439z"/>
				<circle style="fill:#29B3FF;" cx="604.648" cy="156.439" r="3.158"/>
				<path style="fill:#29B3FF;" d="M613.36,156.439c0,1.621-1.314,2.936-2.936,2.936c-1.621,0-2.936-1.314-2.936-2.936
					c0-1.621,1.314-2.936,2.936-2.936C612.046,153.503,613.36,154.817,613.36,156.439z"/>
				<circle style="fill:#29B3FF;" cx="616.201" cy="156.439" r="2.714"/>
				<path style="fill:#29B3FF;" d="M624.469,156.439c0,1.376-1.116,2.492-2.492,2.492c-1.377,0-2.492-1.116-2.492-2.492
					c0-1.376,1.116-2.492,2.492-2.492C623.353,153.946,624.469,155.062,624.469,156.439z"/>
				<path style="fill:#29B3FF;" d="M630.023,156.439c0,1.254-1.017,2.271-2.271,2.271c-1.254,0-2.271-1.017-2.271-2.271
					c0-1.254,1.017-2.271,2.271-2.271C629.007,154.168,630.023,155.185,630.023,156.439z"/>
				<path style="fill:#29B3FF;" d="M635.578,156.439c0,1.132-0.917,2.049-2.049,2.049c-1.131,0-2.049-0.917-2.049-2.049
					c0-1.132,0.917-2.049,2.049-2.049C634.661,154.39,635.578,155.307,635.578,156.439z"/>
				<path style="fill:#29B3FF;" d="M641.132,156.439c0,1.009-0.818,1.827-1.827,1.827c-1.009,0-1.827-0.818-1.827-1.827
					c0-1.009,0.818-1.827,1.827-1.827C640.314,154.612,641.132,155.43,641.132,156.439z"/>
				<path style="fill:#29B3FF;" d="M646.687,156.439c0,0.887-0.719,1.605-1.605,1.605s-1.605-0.719-1.605-1.605
					c0-0.887,0.719-1.605,1.605-1.605S646.687,155.552,646.687,156.439z"/>
				<path style="fill:#29B3FF;" d="M652.241,156.439c0,0.764-0.619,1.384-1.384,1.384c-0.764,0-1.384-0.62-1.384-1.384
					c0-0.764,0.62-1.384,1.384-1.384C651.622,155.055,652.241,155.675,652.241,156.439z"/>
				<path style="fill:#29B3FF;" d="M657.795,156.439c0,0.642-0.52,1.162-1.162,1.162c-0.642,0-1.162-0.52-1.162-1.162
					c0-0.642,0.52-1.162,1.162-1.162C657.275,155.277,657.795,155.797,657.795,156.439z"/>
				<path style="fill:#29B3FF;" d="M663.35,156.439c0,0.519-0.421,0.94-0.94,0.94c-0.519,0-0.94-0.421-0.94-0.94
					c0-0.519,0.421-0.94,0.94-0.94C662.929,155.499,663.35,155.919,663.35,156.439z"/>
				<path style="fill:#29B3FF;" d="M668.904,156.439c0,0.397-0.322,0.718-0.718,0.718c-0.397,0-0.718-0.322-0.718-0.718
					c0-0.397,0.322-0.718,0.718-0.718C668.583,155.72,668.904,156.042,668.904,156.439z"/>
			</g>
		</g>
		<g>
			<g>
				<path style="fill:#29B3FF;" d="M233.414,259.8c0,2.393-1.94,4.334-4.334,4.334c-2.393,0-4.334-1.94-4.334-4.334
					s1.94-4.334,4.334-4.334C231.474,255.466,233.414,257.407,233.414,259.8z"/>
				<circle style="fill:none;stroke:#29B3FF;stroke-width:0.6353;stroke-miterlimit:10;" cx="240.546" cy="259.8" r="4.334"/>
				<path d="M257.37,259.8c0,2.393-1.94,4.334-4.334,4.334c-2.393,0-4.334-1.94-4.334-4.334s1.94-4.334,4.334-4.334
					C255.43,255.466,257.37,257.407,257.37,259.8z"/>
				<circle style="fill:none;stroke:#000000;stroke-width:0.6353;stroke-miterlimit:10;" cx="264.501" cy="259.8" r="4.334"/>
			</g>
			<g>
				<circle style="fill:#29B3FF;" cx="276.51" cy="259.8" r="4.334"/>
				<path style="fill:none;stroke:#29B3FF;stroke-width:0.6353;stroke-miterlimit:10;" d="M292.309,259.8
					c0,2.393-1.94,4.334-4.334,4.334c-2.393,0-4.334-1.94-4.334-4.334s1.94-4.334,4.334-4.334
					C290.369,255.466,292.309,257.407,292.309,259.8z"/>
				<circle cx="300.466" cy="259.8" r="4.334"/>
				<path style="fill:none;stroke:#000000;stroke-width:0.6353;stroke-miterlimit:10;" d="M316.264,259.8
					c0,2.393-1.94,4.334-4.334,4.334c-2.393,0-4.334-1.94-4.334-4.334s1.94-4.334,4.334-4.334
					C314.324,255.466,316.264,257.407,316.264,259.8z"/>
			</g>
			<g>
				<circle style="fill:#29B3FF;" cx="323.94" cy="259.8" r="4.334"/>
				<path style="fill:none;stroke:#29B3FF;stroke-width:0.6353;stroke-miterlimit:10;" d="M339.738,259.8
					c0,2.393-1.94,4.334-4.334,4.334c-2.393,0-4.334-1.94-4.334-4.334s1.94-4.334,4.334-4.334
					C337.798,255.466,339.738,257.407,339.738,259.8z"/>
				<circle cx="347.895" cy="259.8" r="4.334"/>
				<path style="fill:none;stroke:#000000;stroke-width:0.6353;stroke-miterlimit:10;" d="M363.694,259.8
					c0,2.393-1.94,4.334-4.334,4.334c-2.393,0-4.334-1.94-4.334-4.334s1.94-4.334,4.334-4.334
					C361.754,255.466,363.694,257.407,363.694,259.8z"/>
			</g>
		</g>
		<g>
			<g>
				<g>
					<g>
						<path style="fill:none;stroke:#29B3FF;stroke-width:0.75;stroke-miterlimit:10;" d="M288.488,459.091
							c0,1.197-0.97,2.167-2.167,2.167c-1.197,0-2.167-0.97-2.167-2.167c0-1.197,0.97-2.167,2.167-2.167
							C287.518,456.924,288.488,457.894,288.488,459.091z"/>
					</g>
				</g>
				<g>
					<g>
						<path style="fill:none;stroke:#29B3FF;stroke-width:0.75;stroke-miterlimit:10;" d="M298.148,459.091
							c0,1.197-0.97,2.167-2.167,2.167c-1.197,0-2.167-0.97-2.167-2.167c0-1.197,0.97-2.167,2.167-2.167
							C297.178,456.924,298.148,457.894,298.148,459.091z"/>
					</g>
				</g>
				<g>
					<g>
						<path style="fill:none;stroke:#29B3FF;stroke-width:0.75;stroke-miterlimit:10;" d="M307.808,459.091
							c0,1.197-0.97,2.167-2.167,2.167c-1.197,0-2.167-0.97-2.167-2.167c0-1.197,0.97-2.167,2.167-2.167
							C306.838,456.924,307.808,457.894,307.808,459.091z"/>
					</g>
				</g>
				<g>
					<g>
						<path style="fill:none;stroke:#29B3FF;stroke-width:0.75;stroke-miterlimit:10;" d="M317.468,459.091
							c0,1.197-0.97,2.167-2.167,2.167c-1.197,0-2.167-0.97-2.167-2.167c0-1.197,0.97-2.167,2.167-2.167
							C316.498,456.924,317.468,457.894,317.468,459.091z"/>
					</g>
				</g>
				<g>
					<g>
						<path style="fill:none;stroke:#29B3FF;stroke-width:0.75;stroke-miterlimit:10;" d="M327.129,459.091
							c0,1.197-0.97,2.167-2.167,2.167s-2.167-0.97-2.167-2.167c0-1.197,0.97-2.167,2.167-2.167S327.129,457.894,327.129,459.091z"
							/>
					</g>
				</g>
				<g>
					<g>
						<path style="fill:none;stroke:#29B3FF;stroke-width:0.75;stroke-miterlimit:10;" d="M336.789,459.091
							c0,1.197-0.97,2.167-2.167,2.167c-1.197,0-2.167-0.97-2.167-2.167c0-1.197,0.97-2.167,2.167-2.167
							C335.819,456.924,336.789,457.894,336.789,459.091z"/>
					</g>
				</g>
				<g>
					<g>
						<path style="fill:none;stroke:#29B3FF;stroke-width:0.75;stroke-miterlimit:10;" d="M346.449,459.091
							c0,1.197-0.97,2.167-2.167,2.167c-1.197,0-2.167-0.97-2.167-2.167c0-1.197,0.97-2.167,2.167-2.167
							C345.479,456.924,346.449,457.894,346.449,459.091z"/>
					</g>
				</g>
			</g>
			<g>
				<g>
					<g>
						<path style="fill:none;stroke:#000000;stroke-width:0.75;stroke-miterlimit:10;" d="M297.126,467.442
							c0,1.197-0.97,2.167-2.167,2.167c-1.197,0-2.167-0.97-2.167-2.167c0-1.197,0.97-2.167,2.167-2.167
							C296.156,465.276,297.126,466.246,297.126,467.442z"/>
					</g>
				</g>
				<g>
					<g>
						<circle style="fill:none;stroke:#000000;stroke-width:0.75;stroke-miterlimit:10;" cx="304.62" cy="467.442" r="2.167"/>
					</g>
				</g>
				<g>
					<g>
						<path style="fill:none;stroke:#000000;stroke-width:0.75;stroke-miterlimit:10;" d="M316.447,467.442
							c0,1.197-0.97,2.167-2.167,2.167c-1.197,0-2.167-0.97-2.167-2.167c0-1.197,0.97-2.167,2.167-2.167
							C315.476,465.276,316.447,466.246,316.447,467.442z"/>
					</g>
				</g>
				<g>
					<g>
						<circle style="fill:none;stroke:#000000;stroke-width:0.75;stroke-miterlimit:10;" cx="323.94" cy="467.442" r="2.167"/>
					</g>
				</g>
				<g>
					<g>
						<path style="fill:none;stroke:#000000;stroke-width:0.75;stroke-miterlimit:10;" d="M335.767,467.442
							c0,1.197-0.97,2.167-2.167,2.167c-1.197,0-2.167-0.97-2.167-2.167c0-1.197,0.97-2.167,2.167-2.167
							C334.797,465.276,335.767,466.246,335.767,467.442z"/>
					</g>
				</g>
				<g>
					<g>
						<circle style="fill:none;stroke:#000000;stroke-width:0.75;stroke-miterlimit:10;" cx="343.26" cy="467.442" r="2.167"/>
					</g>
				</g>
				<g>
					<g>
						<path style="fill:none;stroke:#000000;stroke-width:0.75;stroke-miterlimit:10;" d="M355.087,467.442
							c0,1.197-0.97,2.167-2.167,2.167c-1.197,0-2.167-0.97-2.167-2.167c0-1.197,0.97-2.167,2.167-2.167
							C354.117,465.276,355.087,466.246,355.087,467.442z"/>
					</g>
				</g>
			</g>
		</g>
		<line style="fill:none;stroke:#000000;stroke-miterlimit:10;" x1="272.176" y1="275.716" x2="396.031" y2="275.716"/>
		<line style="fill:none;stroke:#29B3FF;stroke-miterlimit:10;" x1="297.433" y1="281.601" x2="338.324" y2="281.601"/>
		<g>
			
				<ellipse transform="matrix(0.7071 -0.7071 0.7071 0.7071 -259.1848 225.0584)" style="fill:#29B3FF;" cx="142.077" cy="425.393" rx="19.718" ry="19.718"/>
			
				<ellipse transform="matrix(0.7071 -0.7071 0.7071 0.7071 -272.344 230.5091)" cx="142.077" cy="444.003" rx="19.718" ry="19.718"/>
		</g>
		<g>
			<path style="fill:none;stroke:#000000;stroke-width:2;stroke-miterlimit:10;" d="M501.063,206.273c0,5.946-6,5.946-6,11.892
				c0,5.947,6,5.947,6,11.893c0,5.947-6,5.947-6,11.894c0,5.945,6,5.945,6,11.89c0,5.946-6,5.946-6,11.893c0,5.948,6,5.948,6,11.897
				c0,5.947-6,5.947-6,11.893c0,5.951,6,5.951,6,11.901c0,5.951-6,5.951-6,11.901"/>
			<path style="fill:none;stroke:#000000;stroke-width:0.5;stroke-miterlimit:10;" d="M490.954,206.273c0,5.946-6,5.946-6,11.892
				c0,5.947,6,5.947,6,11.893c0,5.947-6,5.947-6,11.894c0,5.945,6,5.945,6,11.89c0,5.946-6,5.946-6,11.893c0,5.948,6,5.948,6,11.897
				c0,5.947-6,5.947-6,11.893c0,5.951,6,5.951,6,11.901c0,5.951-6,5.951-6,11.901"/>
			<path style="fill:none;stroke:#29B3FF;stroke-width:2;stroke-miterlimit:10;" d="M511.171,206.273c0,5.946-6,5.946-6,11.892
				c0,5.947,6,5.947,6,11.893c0,5.947-6,5.947-6,11.894c0,5.945,6,5.945,6,11.89c0,5.946-6,5.946-6,11.893c0,5.948,6,5.948,6,11.897
				c0,5.947-6,5.947-6,11.893c0,5.951,6,5.951,6,11.901c0,5.951-6,5.951-6,11.901"/>
			<path style="fill:none;stroke:#29B3FF;stroke-width:0.5;stroke-miterlimit:10;" d="M521.28,206.273c0,5.946-6,5.946-6,11.892
				c0,5.947,6,5.947,6,11.893c0,5.947-6,5.947-6,11.894c0,5.945,6,5.945,6,11.89c0,5.946-6,5.946-6,11.893c0,5.948,6,5.948,6,11.897
				c0,5.947-6,5.947-6,11.893c0,5.951,6,5.951,6,11.901c0,5.951-6,5.951-6,11.901"/>
		</g>
		<g>
			<circle cx="565.31" cy="268.909" r="2.565"/>
			<path d="M580,268.909c0,1.417-1.148,2.565-2.565,2.565c-1.417,0-2.565-1.148-2.565-2.565s1.148-2.565,2.565-2.565
				C578.851,266.344,580,267.492,580,268.909z"/>
			<circle cx="589.559" cy="268.909" r="2.565"/>
			<path d="M604.249,268.909c0,1.417-1.148,2.565-2.565,2.565c-1.417,0-2.565-1.148-2.565-2.565s1.148-2.565,2.565-2.565
				C603.1,266.344,604.249,267.492,604.249,268.909z"/>
			<path d="M567.875,279.036c0,1.417-1.148,2.565-2.565,2.565s-2.565-1.148-2.565-2.565c0-1.416,1.148-2.565,2.565-2.565
				S567.875,277.62,567.875,279.036z"/>
			<path d="M580,279.036c0,1.417-1.148,2.565-2.565,2.565c-1.417,0-2.565-1.148-2.565-2.565c0-1.416,1.148-2.565,2.565-2.565
				C578.851,276.471,580,277.62,580,279.036z"/>
			<path d="M592.124,279.036c0,1.417-1.148,2.565-2.565,2.565s-2.565-1.148-2.565-2.565c0-1.416,1.148-2.565,2.565-2.565
				S592.124,277.62,592.124,279.036z"/>
			<path d="M604.249,279.036c0,1.417-1.148,2.565-2.565,2.565c-1.417,0-2.565-1.148-2.565-2.565c0-1.416,1.148-2.565,2.565-2.565
				C603.1,276.471,604.249,277.62,604.249,279.036z"/>
			<circle cx="565.31" cy="289.164" r="2.565"/>
			<path d="M580,289.164c0,1.417-1.148,2.565-2.565,2.565c-1.417,0-2.565-1.148-2.565-2.565s1.148-2.565,2.565-2.565
				C578.851,286.599,580,287.748,580,289.164z"/>
			<circle cx="589.559" cy="289.164" r="2.565"/>
			<path d="M604.249,289.164c0,1.417-1.148,2.565-2.565,2.565c-1.417,0-2.565-1.148-2.565-2.565s1.148-2.565,2.565-2.565
				C603.1,286.599,604.249,287.748,604.249,289.164z"/>
			<path d="M567.875,299.292c0,1.417-1.148,2.565-2.565,2.565s-2.565-1.148-2.565-2.565c0-1.417,1.148-2.565,2.565-2.565
				S567.875,297.875,567.875,299.292z"/>
			<path d="M580,299.292c0,1.417-1.148,2.565-2.565,2.565c-1.417,0-2.565-1.148-2.565-2.565c0-1.417,1.148-2.565,2.565-2.565
				C578.851,296.727,580,297.875,580,299.292z"/>
			<path d="M592.124,299.292c0,1.417-1.148,2.565-2.565,2.565s-2.565-1.148-2.565-2.565c0-1.417,1.148-2.565,2.565-2.565
				S592.124,297.875,592.124,299.292z"/>
			<path d="M604.249,299.292c0,1.417-1.148,2.565-2.565,2.565c-1.417,0-2.565-1.148-2.565-2.565c0-1.417,1.148-2.565,2.565-2.565
				C603.1,296.727,604.249,297.875,604.249,299.292z"/>
			<circle cx="565.31" cy="309.42" r="2.565"/>
			<path d="M580,309.42c0,1.417-1.148,2.565-2.565,2.565c-1.417,0-2.565-1.148-2.565-2.565c0-1.416,1.148-2.565,2.565-2.565
				C578.851,306.855,580,308.003,580,309.42z"/>
			<circle cx="589.559" cy="309.42" r="2.565"/>
			<path d="M604.249,309.42c0,1.417-1.148,2.565-2.565,2.565c-1.417,0-2.565-1.148-2.565-2.565c0-1.416,1.148-2.565,2.565-2.565
				C603.1,306.855,604.249,308.003,604.249,309.42z"/>
			<path d="M567.875,319.547c0,1.417-1.148,2.565-2.565,2.565s-2.565-1.148-2.565-2.565s1.148-2.565,2.565-2.565
				S567.875,318.131,567.875,319.547z"/>
			<path d="M580,319.547c0,1.417-1.148,2.565-2.565,2.565c-1.417,0-2.565-1.148-2.565-2.565s1.148-2.565,2.565-2.565
				C578.851,316.983,580,318.131,580,319.547z"/>
			<path d="M592.124,319.547c0,1.417-1.148,2.565-2.565,2.565s-2.565-1.148-2.565-2.565s1.148-2.565,2.565-2.565
				S592.124,318.131,592.124,319.547z"/>
			<path d="M604.249,319.547c0,1.417-1.148,2.565-2.565,2.565c-1.417,0-2.565-1.148-2.565-2.565s1.148-2.565,2.565-2.565
				C603.1,316.983,604.249,318.131,604.249,319.547z"/>
		</g>
		<g>
			<path d="M619.984,237.685L619.984,237.685c-2.91,0-5.27-2.359-5.27-5.27V208.47c0-2.91,2.359-5.27,5.27-5.27l0,0
				c2.91,0,5.27,2.359,5.27,5.27v23.945C625.254,235.326,622.895,237.685,619.984,237.685z"/>
			<path style="fill:#29B3FF;" d="M635.521,233.517L635.521,233.517c-2.91,0-5.27-2.359-5.27-5.27v-15.608
				c0-2.91,2.359-5.27,5.27-5.27l0,0c2.91,0,5.27,2.359,5.27,5.27v15.608C640.791,231.157,638.432,233.517,635.521,233.517z"/>
		</g>
		<g>
			<polygon style="fill:#29B3FF;" points="446.062,338.038 430.136,338.038 430.136,322.112 422.414,322.112 422.414,338.038 
				406.488,338.038 406.488,345.76 422.414,345.76 422.414,361.686 430.136,361.686 430.136,345.76 446.062,345.76 			"/>
			<polygon style="fill:none;stroke:#000000;stroke-width:0.75;stroke-miterlimit:10;" points="449.851,333.111 433.926,333.111 
				433.926,317.186 426.203,317.186 426.203,333.111 410.277,333.111 410.277,340.834 426.203,340.834 426.203,356.76 
				433.926,356.76 433.926,340.834 449.851,340.834 			"/>
		</g>
		<g>
			<polygon style="fill:#29B3FF;" points="713.405,162.388 710.224,162.388 710.224,159.206 708.681,159.206 708.681,162.388 
				705.499,162.388 705.499,163.931 708.681,163.931 708.681,167.113 710.224,167.113 710.224,163.931 713.405,163.931 			"/>
			<polygon style="fill:#29B3FF;" points="713.405,150.514 710.224,150.514 710.224,147.332 708.681,147.332 708.681,150.514 
				705.499,150.514 705.499,152.057 708.681,152.057 708.681,155.238 710.224,155.238 710.224,152.057 713.405,152.057 			"/>
			<polygon style="fill:#29B3FF;" points="713.405,138.64 710.224,138.64 710.224,135.458 708.681,135.458 708.681,138.64 
				705.499,138.64 705.499,140.183 708.681,140.183 708.681,143.365 710.224,143.365 710.224,140.183 713.405,140.183 			"/>
			<polygon style="fill:#29B3FF;" points="713.405,126.766 710.224,126.766 710.224,123.584 708.681,123.584 708.681,126.766 
				705.499,126.766 705.499,128.309 708.681,128.309 708.681,131.49 710.224,131.49 710.224,128.309 713.405,128.309 			"/>
			<polygon style="fill:#29B3FF;" points="713.405,114.892 710.224,114.892 710.224,111.71 708.681,111.71 708.681,114.892 
				705.499,114.892 705.499,116.435 708.681,116.435 708.681,119.617 710.224,119.617 710.224,116.435 713.405,116.435 			"/>
		</g>
		<g>
			<circle style="fill:none;stroke:#000000;stroke-width:0.923;stroke-miterlimit:10;" cx="661.469" cy="316.427" r="34.686"/>
			
				<ellipse transform="matrix(0.9239 -0.3827 0.3827 0.9239 -70.7401 277.2202)" style="fill:none;stroke:#000000;stroke-width:0.923;stroke-miterlimit:10;" cx="661.469" cy="316.427" rx="29.344" ry="29.344"/>
			
				<ellipse transform="matrix(0.2298 -0.9732 0.9732 0.2298 201.5323 887.5014)" style="fill:none;stroke:#000000;stroke-width:0.923;stroke-miterlimit:10;" cx="661.469" cy="316.427" rx="24.002" ry="24.002"/>
			
				<ellipse transform="matrix(0.1602 -0.9871 0.9871 0.1602 243.1724 918.6693)" style="fill:none;stroke:#000000;stroke-width:0.923;stroke-miterlimit:10;" cx="661.469" cy="316.427" rx="18.66" ry="18.66"/>
			<circle style="fill:none;stroke:#000000;stroke-width:0.923;stroke-miterlimit:10;" cx="661.469" cy="316.427" r="13.318"/>
			
				<ellipse transform="matrix(0.9239 -0.3827 0.3827 0.9239 -70.7401 277.2206)" style="fill:none;stroke:#000000;stroke-width:0.923;stroke-miterlimit:10;" cx="661.469" cy="316.427" rx="7.976" ry="7.976"/>
		</g>
		<g>
			<polygon points="518.972,117.952 509.845,117.952 505.281,125.856 509.845,133.76 518.972,133.76 523.536,125.856 			"/>
			<polygon style="fill:#29B3FF;" points="537.081,117.952 527.954,117.952 523.39,125.856 527.954,133.76 537.081,133.76 
				541.645,125.856 			"/>
		</g>
		<g>
			<polygon style="fill:none;stroke:#000000;stroke-miterlimit:10;" points="178.466,200.772 178.466,191.645 170.561,187.081 
				162.657,191.645 162.657,200.772 170.561,205.335 			"/>
			<polygon style="fill:none;stroke:#29B3FF;stroke-miterlimit:10;" points="178.466,220.578 178.466,211.451 170.561,206.887 
				162.657,211.451 162.657,220.578 170.561,225.141 			"/>
		</g>
		<g>
			<polygon style="fill:none;stroke:#000000;stroke-width:2;stroke-miterlimit:10;" points="687.922,211.105 697.049,211.105 
				701.613,203.201 697.049,195.296 687.922,195.296 683.358,203.201 			"/>
			<polygon style="fill:none;stroke:#29B3FF;stroke-width:2;stroke-miterlimit:10;" points="675.49,211.105 684.618,211.105 
				689.181,203.201 684.618,195.296 675.49,195.296 670.927,203.201 			"/>
		</g>
		<g>
			<line style="fill:none;stroke:#29B3FF;stroke-miterlimit:10;" x1="22.01" y1="222.079" x2="22.01" y2="304.803"/>
			<line style="fill:none;stroke:#000000;stroke-miterlimit:10;" x1="28.306" y1="198.195" x2="28.306" y2="280.92"/>
		</g>
		<g>
			
				<line style="fill:none;stroke:#29B3FF;stroke-width:3;stroke-miterlimit:10;" x1="430.352" y1="236.665" x2="445.253" y2="236.665"/>
			
				<line style="fill:none;stroke:#000000;stroke-width:3;stroke-miterlimit:10;" x1="426.05" y1="230.369" x2="440.951" y2="230.369"/>
		</g>
		<g>
			
				<line style="fill:none;stroke:#29B3FF;stroke-width:3;stroke-miterlimit:10;" x1="535.329" y1="174.442" x2="550.23" y2="174.442"/>
			
				<line style="fill:none;stroke:#000000;stroke-width:3;stroke-miterlimit:10;" x1="531.026" y1="168.146" x2="545.928" y2="168.146"/>
		</g>
		<g>
			
				<line style="fill:none;stroke:#29B3FF;stroke-width:3;stroke-miterlimit:10;" x1="676.418" y1="377.24" x2="676.418" y2="392.141"/>
			
				<line style="fill:none;stroke:#000000;stroke-width:3;stroke-miterlimit:10;" x1="682.714" y1="372.938" x2="682.714" y2="387.839"/>
		</g>
		<g>
			
				<line style="fill:none;stroke:#29B3FF;stroke-width:3;stroke-miterlimit:10;" x1="245.555" y1="397.907" x2="245.555" y2="412.808"/>
			
				<line style="fill:none;stroke:#000000;stroke-width:3;stroke-miterlimit:10;" x1="251.85" y1="393.604" x2="251.85" y2="408.506"/>
		</g>
		<g>
			
				<line style="fill:none;stroke:#29B3FF;stroke-width:3;stroke-miterlimit:10;" x1="131.785" y1="34.999" x2="146.686" y2="34.999"/>
			
				<line style="fill:none;stroke:#000000;stroke-width:3;stroke-miterlimit:10;" x1="127.483" y1="28.703" x2="142.384" y2="28.703"/>
		</g>
		<g>
			<circle style="fill:none;stroke:#29B3FF;stroke-miterlimit:10;" cx="472.104" cy="91.895" r="2.305"/>
			<path style="fill:none;stroke:#29B3FF;stroke-miterlimit:10;" d="M480.868,91.895c0,1.273-1.032,2.305-2.305,2.305
				c-1.273,0-2.305-1.032-2.305-2.305c0-1.273,1.032-2.305,2.305-2.305C479.836,89.591,480.868,90.622,480.868,91.895z"/>
			<path style="fill:none;stroke:#29B3FF;stroke-miterlimit:10;" d="M474.409,97.863c0,1.273-1.032,2.305-2.305,2.305
				c-1.273,0-2.305-1.032-2.305-2.305c0-1.273,1.032-2.305,2.305-2.305C473.377,95.559,474.409,96.59,474.409,97.863z"/>
			<path style="fill:none;stroke:#29B3FF;stroke-miterlimit:10;" d="M480.868,97.863c0,1.273-1.032,2.305-2.305,2.305
				c-1.273,0-2.305-1.032-2.305-2.305c0-1.273,1.032-2.305,2.305-2.305C479.836,95.559,480.868,96.59,480.868,97.863z"/>
		</g>
		<g>
			<circle style="fill:none;stroke:#000000;stroke-miterlimit:10;" cx="460.905" cy="391.611" r="2.305"/>
			<path style="fill:none;stroke:#000000;stroke-miterlimit:10;" d="M469.669,391.611c0,1.273-1.032,2.305-2.305,2.305
				c-1.273,0-2.305-1.032-2.305-2.305s1.032-2.305,2.305-2.305C468.637,389.306,469.669,390.338,469.669,391.611z"/>
			<path style="fill:none;stroke:#000000;stroke-miterlimit:10;" d="M463.209,397.579c0,1.273-1.032,2.305-2.305,2.305
				s-2.305-1.032-2.305-2.305c0-1.273,1.032-2.305,2.305-2.305S463.209,396.306,463.209,397.579z"/>
			<path style="fill:none;stroke:#000000;stroke-miterlimit:10;" d="M469.669,397.579c0,1.273-1.032,2.305-2.305,2.305
				c-1.273,0-2.305-1.032-2.305-2.305c0-1.273,1.032-2.305,2.305-2.305C468.637,395.274,469.669,396.306,469.669,397.579z"/>
		</g>
		<g>
			<g>
				<path style="fill:#29B3FF;" d="M250.921,204.205c0,0.555-0.45,1.005-1.005,1.005c-0.555,0-1.005-0.45-1.005-1.005
					s0.45-1.005,1.005-1.005C250.472,203.201,250.921,203.651,250.921,204.205z"/>
				<path style="fill:#29B3FF;" d="M250.921,208.858c0,0.555-0.45,1.004-1.005,1.004c-0.555,0-1.005-0.45-1.005-1.004
					c0-0.555,0.45-1.005,1.005-1.005C250.472,207.854,250.921,208.303,250.921,208.858z"/>
				<path style="fill:#29B3FF;" d="M250.921,213.511c0,0.555-0.45,1.005-1.005,1.005c-0.555,0-1.005-0.45-1.005-1.005
					c0-0.555,0.45-1.005,1.005-1.005C250.472,212.507,250.921,212.956,250.921,213.511z"/>
				<path style="fill:#29B3FF;" d="M250.921,218.164c0,0.555-0.45,1.005-1.005,1.005c-0.555,0-1.005-0.45-1.005-1.005
					c0-0.555,0.45-1.005,1.005-1.005C250.472,217.159,250.921,217.609,250.921,218.164z"/>
				<path style="fill:#29B3FF;" d="M250.921,222.817c0,0.555-0.45,1.005-1.005,1.005c-0.555,0-1.005-0.45-1.005-1.005
					c0-0.555,0.45-1.005,1.005-1.005C250.472,221.812,250.921,222.262,250.921,222.817z"/>
				<path style="fill:#29B3FF;" d="M250.921,227.47c0,0.555-0.45,1.005-1.005,1.005c-0.555,0-1.005-0.45-1.005-1.005
					c0-0.555,0.45-1.005,1.005-1.005C250.472,226.465,250.921,226.915,250.921,227.47z"/>
				<path style="fill:#29B3FF;" d="M250.921,232.122c0,0.555-0.45,1.005-1.005,1.005c-0.555,0-1.005-0.45-1.005-1.005
					c0-0.555,0.45-1.005,1.005-1.005C250.472,231.118,250.921,231.568,250.921,232.122z"/>
				<path style="fill:#29B3FF;" d="M255.802,204.205c0,0.555-0.45,1.005-1.005,1.005c-0.555,0-1.005-0.45-1.005-1.005
					s0.45-1.005,1.005-1.005C255.352,203.201,255.802,203.651,255.802,204.205z"/>
				<path style="fill:#29B3FF;" d="M260.682,204.205c0,0.555-0.45,1.005-1.004,1.005c-0.555,0-1.005-0.45-1.005-1.005
					s0.45-1.005,1.005-1.005C260.232,203.201,260.682,203.651,260.682,204.205z"/>
				<path style="fill:#29B3FF;" d="M265.562,204.205c0,0.555-0.45,1.005-1.005,1.005s-1.005-0.45-1.005-1.005
					s0.45-1.005,1.005-1.005S265.562,203.651,265.562,204.205z"/>
				<path style="fill:#29B3FF;" d="M270.442,204.205c0,0.555-0.45,1.005-1.005,1.005c-0.555,0-1.005-0.45-1.005-1.005
					s0.45-1.005,1.005-1.005C269.992,203.201,270.442,203.651,270.442,204.205z"/>
				<path style="fill:#29B3FF;" d="M275.323,204.205c0,0.555-0.45,1.005-1.005,1.005s-1.005-0.45-1.005-1.005
					s0.45-1.005,1.005-1.005S275.323,203.651,275.323,204.205z"/>
				<path style="fill:#29B3FF;" d="M280.203,204.205c0,0.555-0.45,1.005-1.005,1.005c-0.555,0-1.004-0.45-1.004-1.005
					s0.45-1.005,1.004-1.005C279.753,203.201,280.203,203.651,280.203,204.205z"/>
			</g>
			<g>
				<path style="fill:#29B3FF;" d="M255.802,208.858c0,0.555-0.45,1.004-1.005,1.004c-0.555,0-1.005-0.45-1.005-1.004
					c0-0.555,0.45-1.005,1.005-1.005C255.352,207.854,255.802,208.303,255.802,208.858z"/>
				<path style="fill:#29B3FF;" d="M255.802,213.511c0,0.555-0.45,1.005-1.005,1.005c-0.555,0-1.005-0.45-1.005-1.005
					c0-0.555,0.45-1.005,1.005-1.005C255.352,212.507,255.802,212.956,255.802,213.511z"/>
				<path style="fill:#29B3FF;" d="M255.802,218.164c0,0.555-0.45,1.005-1.005,1.005c-0.555,0-1.005-0.45-1.005-1.005
					c0-0.555,0.45-1.005,1.005-1.005C255.352,217.159,255.802,217.609,255.802,218.164z"/>
				<path style="fill:#29B3FF;" d="M255.802,222.817c0,0.555-0.45,1.005-1.005,1.005c-0.555,0-1.005-0.45-1.005-1.005
					c0-0.555,0.45-1.005,1.005-1.005C255.352,221.812,255.802,222.262,255.802,222.817z"/>
				<path style="fill:#29B3FF;" d="M255.802,227.47c0,0.555-0.45,1.005-1.005,1.005c-0.555,0-1.005-0.45-1.005-1.005
					c0-0.555,0.45-1.005,1.005-1.005C255.352,226.465,255.802,226.915,255.802,227.47z"/>
				<path style="fill:#29B3FF;" d="M260.682,208.858c0,0.555-0.45,1.004-1.004,1.004c-0.555,0-1.005-0.45-1.005-1.004
					c0-0.555,0.45-1.005,1.005-1.005C260.232,207.854,260.682,208.303,260.682,208.858z"/>
				<path style="fill:#29B3FF;" d="M265.562,208.858c0,0.555-0.45,1.004-1.005,1.004s-1.005-0.45-1.005-1.004
					c0-0.555,0.45-1.005,1.005-1.005S265.562,208.303,265.562,208.858z"/>
				<path style="fill:#29B3FF;" d="M270.442,208.858c0,0.555-0.45,1.004-1.005,1.004c-0.555,0-1.005-0.45-1.005-1.004
					c0-0.555,0.45-1.005,1.005-1.005C269.992,207.854,270.442,208.303,270.442,208.858z"/>
				<path style="fill:#29B3FF;" d="M275.323,208.858c0,0.555-0.45,1.004-1.005,1.004s-1.005-0.45-1.005-1.004
					c0-0.555,0.45-1.005,1.005-1.005S275.323,208.303,275.323,208.858z"/>
			</g>
			<g>
				<path style="fill:#29B3FF;" d="M260.682,213.511c0,0.555-0.45,1.005-1.004,1.005c-0.555,0-1.005-0.45-1.005-1.005
					c0-0.555,0.45-1.005,1.005-1.005C260.232,212.507,260.682,212.956,260.682,213.511z"/>
				<path style="fill:#29B3FF;" d="M260.682,218.164c0,0.555-0.45,1.005-1.004,1.005c-0.555,0-1.005-0.45-1.005-1.005
					c0-0.555,0.45-1.005,1.005-1.005C260.232,217.159,260.682,217.609,260.682,218.164z"/>
				<path style="fill:#29B3FF;" d="M260.682,222.817c0,0.555-0.45,1.005-1.004,1.005c-0.555,0-1.005-0.45-1.005-1.005
					c0-0.555,0.45-1.005,1.005-1.005C260.232,221.812,260.682,222.262,260.682,222.817z"/>
				<circle style="fill:#29B3FF;" cx="264.557" cy="213.511" r="1.005"/>
				<circle style="fill:#29B3FF;" cx="269.438" cy="213.511" r="1.005"/>
			</g>
		</g>
		<g>
			<g>
				<circle cx="721.919" cy="258.561" r="1.005"/>
				<path d="M717.266,259.565c-0.555,0-1.005-0.45-1.005-1.005c0-0.555,0.45-1.005,1.005-1.005s1.005,0.45,1.005,1.005
					C718.27,259.116,717.821,259.565,717.266,259.565z"/>
				<path d="M712.613,259.565c-0.555,0-1.005-0.45-1.005-1.005c0-0.555,0.45-1.005,1.005-1.005s1.005,0.45,1.005,1.005
					C713.617,259.116,713.168,259.565,712.613,259.565z"/>
				<circle cx="707.96" cy="258.561" r="1.005"/>
				<path d="M703.307,259.565c-0.555,0-1.005-0.45-1.005-1.005c0-0.555,0.45-1.005,1.005-1.005c0.555,0,1.005,0.45,1.005,1.005
					C704.312,259.116,703.862,259.565,703.307,259.565z"/>
				<circle cx="698.654" cy="258.561" r="1.005"/>
				<circle cx="694.002" cy="258.561" r="1.005"/>
				<path d="M721.919,264.446c-0.555,0-1.005-0.45-1.005-1.005c0-0.555,0.45-1.004,1.005-1.004s1.005,0.45,1.005,1.004
					C722.923,263.996,722.473,264.446,721.919,264.446z"/>
				<path d="M721.919,269.326c-0.555,0-1.005-0.45-1.005-1.004c0-0.555,0.45-1.005,1.005-1.005s1.005,0.45,1.005,1.005
					C722.923,268.876,722.473,269.326,721.919,269.326z"/>
				<circle cx="721.919" cy="273.202" r="1.005"/>
				<circle cx="721.919" cy="278.082" r="1.005"/>
				<circle cx="721.919" cy="282.962" r="1.005"/>
				<path d="M721.919,288.847c-0.555,0-1.005-0.45-1.005-1.005c0-0.555,0.45-1.004,1.005-1.004s1.005,0.45,1.005,1.004
					C722.923,288.397,722.473,288.847,721.919,288.847z"/>
			</g>
			<g>
				<path d="M717.266,264.446c-0.555,0-1.005-0.45-1.005-1.005c0-0.555,0.45-1.004,1.005-1.004s1.005,0.45,1.005,1.004
					C718.27,263.996,717.821,264.446,717.266,264.446z"/>
				<path d="M712.613,264.446c-0.555,0-1.005-0.45-1.005-1.005c0-0.555,0.45-1.004,1.005-1.004s1.005,0.45,1.005,1.004
					C713.617,263.996,713.168,264.446,712.613,264.446z"/>
				<path d="M707.96,264.446c-0.555,0-1.005-0.45-1.005-1.005c0-0.555,0.45-1.004,1.005-1.004s1.005,0.45,1.005,1.004
					C708.965,263.996,708.515,264.446,707.96,264.446z"/>
				<path d="M703.307,264.446c-0.555,0-1.005-0.45-1.005-1.005c0-0.555,0.45-1.004,1.005-1.004c0.555,0,1.005,0.45,1.005,1.004
					C704.312,263.996,703.862,264.446,703.307,264.446z"/>
				<path d="M698.654,264.446c-0.555,0-1.005-0.45-1.005-1.005c0-0.555,0.45-1.004,1.005-1.004s1.005,0.45,1.005,1.004
					C699.659,263.996,699.209,264.446,698.654,264.446z"/>
				<path d="M717.266,269.326c-0.555,0-1.005-0.45-1.005-1.004c0-0.555,0.45-1.005,1.005-1.005s1.005,0.45,1.005,1.005
					C718.27,268.876,717.821,269.326,717.266,269.326z"/>
				<path d="M717.266,274.206c-0.555,0-1.005-0.45-1.005-1.005s0.45-1.005,1.005-1.005s1.005,0.45,1.005,1.005
					S717.821,274.206,717.266,274.206z"/>
				<path d="M717.266,279.086c-0.555,0-1.005-0.45-1.005-1.005c0-0.555,0.45-1.005,1.005-1.005s1.005,0.45,1.005,1.005
					C718.27,278.637,717.821,279.086,717.266,279.086z"/>
				<path d="M717.266,283.967c-0.555,0-1.005-0.45-1.005-1.005s0.45-1.005,1.005-1.005s1.005,0.45,1.005,1.005
					S717.821,283.967,717.266,283.967z"/>
			</g>
			<g>
				<path d="M712.613,269.326c-0.555,0-1.005-0.45-1.005-1.004c0-0.555,0.45-1.005,1.005-1.005s1.005,0.45,1.005,1.005
					C713.617,268.876,713.168,269.326,712.613,269.326z"/>
				<path d="M707.96,269.326c-0.555,0-1.005-0.45-1.005-1.004c0-0.555,0.45-1.005,1.005-1.005s1.005,0.45,1.005,1.005
					C708.965,268.876,708.515,269.326,707.96,269.326z"/>
				<path d="M703.307,269.326c-0.555,0-1.005-0.45-1.005-1.004c0-0.555,0.45-1.005,1.005-1.005c0.555,0,1.005,0.45,1.005,1.005
					C704.312,268.876,703.862,269.326,703.307,269.326z"/>
				<path d="M712.613,274.206c-0.555,0-1.005-0.45-1.005-1.005s0.45-1.005,1.005-1.005s1.005,0.45,1.005,1.005
					S713.168,274.206,712.613,274.206z"/>
				<path d="M712.613,279.086c-0.555,0-1.005-0.45-1.005-1.005c0-0.555,0.45-1.005,1.005-1.005s1.005,0.45,1.005,1.005
					C713.617,278.637,713.168,279.086,712.613,279.086z"/>
			</g>
		</g>
	</g>
</g>
</svg>
